<?xml version="1.0" encoding="iso-8859-1"?><!-- Generator: Adobe Illustrator 22.1.0, SVG Export Plug-In . SVG Version: 6.00 Build 0)  --><svg xmlns="http://www.w3.org/2000/svg" xmlns:xlink="http://www.w3.org/1999/xlink" viewBox="0 0 50 50" width="250px" height="250px"><path d="M25,2C12.317,2,2,12.317,2,25s10.317,23,23,23s23-10.317,23-23S37.683,2,25,2z M43.765,34.373c1.267-3.719-0.131-8.03-3.567-10.23c-4.024-2.576-9.374-1.401-11.95,2.623h0c-1.854,2.896-1.756,6.474-0.061,9.215c-1.009,1.556-2.369,2.917-4.07,3.931c-5.4,3.22-12.356,1.952-16.225-2.779c-0.186-0.262-0.367-0.527-0.541-0.797c2.62,3.273,7.404,4.213,11.166,2.09c4.161-2.348,5.631-7.625,3.283-11.786v0c-1.618-2.867-4.627-4.456-7.703-4.399c-0.994-1.792-1.563-3.852-1.563-6.047c0-5.482,3.537-10.119,8.448-11.8c0.36-0.07,0.728-0.116,1.094-0.168c-3.321,1.208-5.698,4.384-5.698,8.123c0,4.778,3.873,8.651,8.651,8.651c3.179,0,5.949-1.719,7.453-4.274c2.197,0.015,4.417,0.594,6.427,1.825c5.056,3.094,7.173,9.294,5.39,14.713C44.137,33.643,43.948,34.007,43.765,34.373z"/></svg>