<?xml version="1.0" encoding="utf-8"?><!-- Generator: Adobe Illustrator 19.1.1, SVG Export Plug-In . SVG Version: 6.00 Build 0)  --><svg xmlns="http://www.w3.org/2000/svg" xmlns:xlink="http://www.w3.org/1999/xlink" viewBox="0 0 48 48" width="240px" height="240px"><path fill="#CFD8DC" d="M42,42H6V7c0-0.6,0.4-1,1-1h34c0.6,0,1,0.4,1,1V42z"/><rect x="8" y="13" fill="#263238" width="32" height="27"/><g><path fill="#76FF03" d="M15.5,26.4l3.5,2.1V31l-6-3.7v-2.1l6-3.2v2.5L15.5,26.4z"/><path fill="#76FF03" d="M23,33h-2l4-14h2L23,33z"/><path fill="#76FF03" d="M32.5,26.5l-3.5-2V22l6,3.4v2.1L29,31v-2.5L32.5,26.5z"/></g><g><circle fill="#90A4AE" cx="13.5" cy="9.5" r="1.5"/><circle fill="#90A4AE" cx="9.5" cy="9.5" r="1.5"/></g></svg>