<?xml version="1.0" encoding="utf-8"?>
<!-- Generator: Adobe Illustrator 27.0.0, SVG Export Plug-In . SVG Version: 6.00 Build 0)  -->
<svg version="1.1" id="Layer_1" xmlns="http://www.w3.org/2000/svg" xmlns:xlink="http://www.w3.org/1999/xlink" x="0px" y="0px"
	 viewBox="0 0 64 64" style="enable-background:new 0 0 64 64;" xml:space="preserve">
<style type="text/css">
	.st0{fill:url(#SVGID_1_);}
	.st1{fill:url(#SVGID_00000121965179901402089210000016233136583366972073_);}
	.st2{fill:url(#SVGID_00000003071036106403582200000006887331026990177716_);}
	.st3{fill:none;}
	.st4{fill-rule:evenodd;clip-rule:evenodd;fill:url(#SVGID_00000061470503210953615600000005806723988813941135_);}
	.st5{fill:url(#SVGID_00000157988545808716819210000000881073476524115102_);}
	.st6{fill:url(#SVGID_00000049216938276366046740000007723609846672486284_);}
	.st7{fill:url(#SVGID_00000088090897451246375920000001630297021362390196_);}
</style>
<g>
	
		<linearGradient id="SVGID_1_" gradientUnits="userSpaceOnUse" x1="32" y1="58" x2="32" y2="6" gradientTransform="matrix(1 0 0 -1 0 64)">
		<stop  offset="0" style="stop-color:#1A6DFF"/>
		<stop  offset="0.695" style="stop-color:#C822FF"/>
	</linearGradient>
	<path class="st0" d="M53.5,17.5c-0.3,0.8-0.5,1.6-0.8,2.5c2.1,3.5,3.2,7.6,3.2,12c0,13.2-10.8,24-24,24c-7.9,0-15-3.9-19.4-9.8
		c-0.2-0.2-0.3-0.4-0.5-0.6C9.6,41.7,8,37,8,32C8,18.8,18.8,8,32,8c5,0,9.6,1.5,13.5,4.1c0.7-0.3,1.4-0.7,2.1-1C43.2,8,37.8,6,32,6
		C17.7,6,6,17.7,6,32s11.7,26,26,26s26-11.7,26-26C58,26.7,56.3,21.7,53.5,17.5z"/>
</g>
<linearGradient id="SVGID_00000066509642602792888560000007496454747092907423_" gradientUnits="userSpaceOnUse" x1="26.75" y1="54.05" x2="26.75" y2="20.45" gradientTransform="matrix(1 0 0 -1 0 64)">
	<stop  offset="0" style="stop-color:#6DC7FF"/>
	<stop  offset="0.699" style="stop-color:#E6ABFF"/>
</linearGradient>
<path style="fill:url(#SVGID_00000066509642602792888560000007496454747092907423_);" d="M13.5,43.1l-0.2,0.5
	c-0.2-0.2-0.3-0.4-0.4-0.7C11,39.7,10,36,10,32c0-12.2,9.9-22,22-22c4.2,0,8.2,1.2,11.5,3.2C30.5,20.2,19.4,32.6,13.5,43.1z"/>
<linearGradient id="SVGID_00000168075333108725805940000012223439736307629456_" gradientUnits="userSpaceOnUse" x1="52.2735" y1="41.24" x2="52.2735" y2="20.87" gradientTransform="matrix(1 0 0 -1 0 64)">
	<stop  offset="0" style="stop-color:#6DC7FF"/>
	<stop  offset="0.699" style="stop-color:#E6ABFF"/>
</linearGradient>
<path style="fill:url(#SVGID_00000168075333108725805940000012223439736307629456_);" d="M54,32c0,4-1.1,7.7-2.9,11
	c0,0.1-0.1,0.1-0.1,0.2c-1-8.3-0.2-15.2,1-20.4C53.3,25.6,54,28.7,54,32z"/>
<g id="Layer_1_00000168088121533062492100000008930694714366369198_">
</g>
<path class="st3" d="M28.7,50.9L28.7,50.9L28.7,50.9z"/>
<linearGradient id="SVGID_00000008129566595572227730000017843493784833644471_" gradientUnits="userSpaceOnUse" x1="34.8" y1="4.5957" x2="34.8" y2="40.7676">
	<stop  offset="0" style="stop-color:#1A6DFF"/>
	<stop  offset="1" style="stop-color:#C822FF"/>
</linearGradient>
<path style="fill-rule:evenodd;clip-rule:evenodd;fill:url(#SVGID_00000008129566595572227730000017843493784833644471_);" d="
	M54.4,10.9c-1,1.5-7.8,13.6-5.3,33l-33.9,0.2C23.2,29.8,39,15,54.4,10.9z"/>
<linearGradient id="SVGID_00000178179438907572340090000015042638177559751591_" gradientUnits="userSpaceOnUse" x1="612.312" y1="-142.8051" x2="612.312" y2="-142.8051" gradientTransform="matrix(0.7711 0.6367 0.6367 -0.7711 -342.9297 -492.176)">
	<stop  offset="0" style="stop-color:#1A6DFF"/>
	<stop  offset="0.695" style="stop-color:#C822FF"/>
</linearGradient>
<path style="fill:url(#SVGID_00000178179438907572340090000015042638177559751591_);" d="M38.3,7.8L38.3,7.8L38.3,7.8z"/>
<linearGradient id="SVGID_00000047046181590677548310000015942894902735596459_" gradientUnits="userSpaceOnUse" x1="630.9536" y1="-182.6584" x2="630.9536" y2="-182.6584" gradientTransform="matrix(0.7711 0.6367 0.6367 -0.7711 -342.9297 -492.176)">
	<stop  offset="0" style="stop-color:#1A6DFF"/>
	<stop  offset="0.695" style="stop-color:#C822FF"/>
</linearGradient>
<path style="fill:url(#SVGID_00000047046181590677548310000015942894902735596459_);" d="M27.3,50.4L27.3,50.4L27.3,50.4z"/>
<linearGradient id="SVGID_00000182503358186955513670000011614533556311125417_" gradientUnits="userSpaceOnUse" x1="31.95" y1="36.6383" x2="31.95" y2="53.7447">
	<stop  offset="0" style="stop-color:#6DC7FF"/>
	<stop  offset="0.699" style="stop-color:#E6ABFF"/>
</linearGradient>
<path style="fill:url(#SVGID_00000182503358186955513670000011614533556311125417_);" d="M51.1,43C47.3,49.6,40.2,54,32,54
	s-15.4-4.5-19.2-11.1C13.2,43,13.6,43,14,43c2.6,0,4.8-0.9,6-3c1.2,2.1,3.4,3,6,3s4.8-0.9,6-3c1.2,2.1,3.4,3,6,3s4.8-0.9,6-3
	c1.2,2.1,3.4,3,6,3C50.5,43,50.8,43,51.1,43z"/>
</svg>