<?xml version="1.0" encoding="iso-8859-1"?>
<!-- Generator: Adobe Illustrator 23.0.3, SVG Export Plug-In . SVG Version: 6.00 Build 0)  -->
<svg version="1.1" xmlns="http://www.w3.org/2000/svg" xmlns:xlink="http://www.w3.org/1999/xlink" x="0px" y="0px"
	 viewBox="0 0 48 48" style="enable-background:new 0 0 48 48;" xml:space="preserve">
<g id="visual_studio_2019">
	<path style="fill:#CE93D8;" d="M44,11.11v25.78c0,1.27-0.79,2.4-1.98,2.82l-8.82,4.14L34,33V15L33.2,4.15l8.82,4.14
		C43.21,8.71,44,9.84,44,11.11z"/>
	<path style="fill:#8E24AA;" d="M4.416,33.815l3.159,1.95c0.733,0.44,1.664,0.365,2.318-0.185L34,15.938V5.353
		c0-1.198-1.482-1.758-2.275-0.86L9,29.873L4.416,33.815z"/>
	<path style="fill:#AB47BC;" d="M4.416,14.185l3.159-1.95c0.733-0.44,1.664-0.365,2.318,0.185L34,32.063v10.585
		c0,1.198-1.482,1.758-2.275,0.86L9,18.127L4.416,14.185z"/>
	<path style="fill:#6A1B9A;" d="M9,18.13v11.74l-3.2,3.74C5.22,34.37,4,33.96,4,33V15c0-0.96,1.22-1.37,1.8-0.61L9,18.13z"/>
</g>
<g id="visual_studio_code_2019">
</g>
</svg>