<svg xmlns="http://www.w3.org/2000/svg" xmlns:xlink="http://www.w3.org/1999/xlink" viewBox="0,0,256,256" width="240px" height="240px" fill-rule="nonzero"><g fill="#ee5e00" fill-rule="nonzero" stroke="none" stroke-width="1" stroke-linecap="butt" stroke-linejoin="miter" stroke-miterlimit="10" stroke-dasharray="" stroke-dashoffset="0" font-family="none" font-weight="none" font-size="none" text-anchor="none" style="mix-blend-mode: normal"><g transform="scale(5.33333,5.33333)"><path d="M42.164,24l1.836,-1.97l-2.185,-1.574l1.416,-2.29l-2.45,-1.117l0.942,-2.522l-2.621,-0.618l0.432,-2.658l-2.691,-0.095l-0.095,-2.691l-2.658,0.432l-0.618,-2.621l-2.522,0.942l-1.117,-2.45l-2.29,1.416l-1.573,-2.184l-1.97,1.836l-1.97,-1.836l-1.574,2.185l-2.29,-1.416l-1.117,2.45l-2.522,-0.942l-0.618,2.621l-2.658,-0.432l-0.095,2.691l-2.691,0.095l0.432,2.658l-2.621,0.618l0.942,2.522l-2.45,1.117l1.416,2.29l-2.184,1.573l1.836,1.97l-1.836,1.97l2.185,1.574l-1.416,2.29l2.45,1.117l-0.942,2.522l2.621,0.618l-0.432,2.658l2.691,0.095l0.095,2.691l2.658,-0.432l0.618,2.621l2.522,-0.942l1.117,2.45l2.29,-1.416l1.573,2.184l1.97,-1.836l1.97,1.836l1.574,-2.185l2.29,1.416l1.117,-2.45l2.522,0.942l0.618,-2.621l2.658,0.432l0.095,-2.691l2.691,-0.095l-0.432,-2.658l2.621,-0.618l-0.942,-2.522l2.45,-1.117l-1.416,-2.29l2.184,-1.573zM24,7c0.552,0 1,0.448 1,1c0,0.552 -0.448,1 -1,1c-0.552,0 -1,-0.448 -1,-1c0,-0.552 0.448,-1 1,-1zM9,18c0.552,0 1,0.448 1,1c0,0.552 -0.448,1 -1,1c-0.552,0 -1,-0.448 -1,-1c0,-0.552 0.448,-1 1,-1zM8.808,29c-0.518,-1.574 -0.808,-3.252 -0.808,-5c0,-0.704 0.061,-1.392 0.149,-2.072l2.707,-1.45c0.55,-0.294 0.824,-0.895 0.738,-1.478h1.406v10zM15,38c-0.552,0 -1,-0.448 -1,-1c0,-0.552 0.448,-1 1,-1c0.552,0 1,0.448 1,1c0,0.552 -0.448,1 -1,1zM33,38c-0.552,0 -1,-0.448 -1,-1c0,-0.552 0.448,-1 1,-1c0.552,0 1,0.448 1,1c0,0.552 -0.448,1 -1,1zM35.444,35.171l-3.112,-0.497c-0.784,-0.125 -1.521,0.409 -1.646,1.193l-0.459,2.877c-1.914,0.808 -4.018,1.256 -6.227,1.256c-2.256,0 -4.4,-0.472 -6.346,-1.314l-0.43,-2.692c-0.125,-0.784 -0.862,-1.318 -1.646,-1.193l-2.932,0.468c-0.691,-0.696 -1.319,-1.456 -1.873,-2.27h13.178v-4h-3.951v-3h2.872c5.474,0 0.987,7 8.247,7h6.108c-0.53,0.778 -1.129,1.502 -1.783,2.172zM20.238,22v-3h5.198c0.82,0 1.485,0.665 1.485,1.485v0.03c0,0.82 -0.665,1.485 -1.485,1.485zM39.927,25.436h-2.611v1.232c0,1.37 -0.854,2.332 -1.844,2.332c-2.547,0 -1.855,-3.537 -4.953,-5.08c2.312,-0.381 4.084,-2.43 4.084,-4.92c0,-2.761 -2.172,-5 -4.851,-5h-5.802h-8.168h-4.262c2.272,-2.832 5.483,-4.876 9.166,-5.652l2.297,2.297c0.561,0.561 1.471,0.561 2.032,0l2.297,-2.297c4.64,0.978 8.54,3.962 10.744,8.007l-1.167,2.178c-0.375,0.7 -0.111,1.571 0.588,1.945l2.342,1.254c0.108,0.743 0.181,1.496 0.181,2.268c0,0.485 -0.03,0.962 -0.073,1.436zM39,20c-0.552,0 -1,-0.448 -1,-1c0,-0.552 0.448,-1 1,-1c0.552,0 1,0.448 1,1c0,0.552 -0.448,1 -1,1z"></path></g></g></svg>