<?xml version="1.0" encoding="utf-8"?>
<!-- Generator: Adobe Illustrator 23.0.3, SVG Export Plug-In . SVG Version: 6.00 Build 0)  -->
<svg version="1.1" id="bold" xmlns="http://www.w3.org/2000/svg" xmlns:xlink="http://www.w3.org/1999/xlink" x="0px" y="0px"
	 viewBox="0 0 24 24" enable-background="new 0 0 24 24" xml:space="preserve">
<path d="M0.819,21h18.23c0.568,0,1.135-0.462,1.265-1.032l3.659-15.936C24.104,3.462,23.749,3,23.181,3H4.951
	C4.383,3,3.816,3.462,3.686,4.032L0.027,19.968C-0.104,20.538,0.251,21,0.819,21z M16.449,16.705c0.511,0,0.925,0.412,0.928,0.92
	c-0.003,0.509-0.417,0.92-0.928,0.92c-0.002,0-0.004,0-0.006,0H12.01c-0.516,0-0.934-0.412-0.934-0.92
	c0.003-0.509,0.417-0.92,0.928-0.92c0.002,0,0.004,0,0.006,0h4.433C16.445,16.705,16.447,16.705,16.449,16.705z M4.81,17.011
	l7.42-5.358v-0.11L7.568,6.598c-0.38-0.403-0.341-1.055,0.088-1.457c0.429-0.402,1.086-0.4,1.466,0.004l5.594,5.934
	c0.317,0.337,0.341,0.846,0.09,1.239c-0.076,0.154-0.234,0.322-0.514,0.519l-8.229,5.892c-0.449,0.326-1.094,0.205-1.44-0.269
	C4.277,17.985,4.36,17.337,4.81,17.011z"/>
</svg>