<?xml version="1.0" encoding="iso-8859-1"?>
<!-- Generator: Adobe Illustrator 24.2.1, SVG Export Plug-In . SVG Version: 6.00 Build 0)  -->
<svg version="1.1" id="Layer_1" xmlns="http://www.w3.org/2000/svg" xmlns:xlink="http://www.w3.org/1999/xlink" x="0px" y="0px"
	 viewBox="0 0 48 48" style="enable-background:new 0 0 48 48;" xml:space="preserve">
<g>
</g>
<linearGradient id="SVGID_1_" gradientUnits="userSpaceOnUse" x1="6.5858" y1="6.5856" x2="41.4146" y2="41.4144">
	<stop  offset="0.002" style="stop-color:#9C55D4"/>
	<stop  offset="0.003" style="stop-color:#9C55D4"/>
	<stop  offset="0.337" style="stop-color:#9751D2"/>
	<stop  offset="0.737" style="stop-color:#8847CB"/>
	<stop  offset="0.848" style="stop-color:#8343C8"/>
	<stop  offset="0.89" style="stop-color:#8042C3"/>
	<stop  offset="0.938" style="stop-color:#773DB6"/>
	<stop  offset="0.988" style="stop-color:#68369F"/>
	<stop  offset="1" style="stop-color:#643499"/>
</linearGradient>
<path style="fill:url(#SVGID_1_);" d="M40,6H8C6.895,6,6,6.895,6,8v32c0,1.105,0.895,2,2,2h32c1.105,0,2-0.895,2-2V8
	C42,6.895,41.105,6,40,6z"/>
<path style="opacity:0.05;" d="M25.9,14.5h-3.8c-0.06,0-0.1,0.04-0.1,0.1v3.8c0,0.06,0.04,0.1,0.1,0.1h3.8c0.06,0,0.1-0.04,0.1-0.1
	v-3.8C26,14.54,25.96,14.5,25.9,14.5z M25.5,18h-3v-3h3V18z M25.9,14.5h-3.8c-0.06,0-0.1,0.04-0.1,0.1v3.8c0,0.06,0.04,0.1,0.1,0.1
	h3.8c0.06,0,0.1-0.04,0.1-0.1v-3.8C26,14.54,25.96,14.5,25.9,14.5z M25.5,18h-3v-3h3V18z M24.4,29.5h-3.8c-0.06,0-0.1,0.04-0.1,0.1
	v3.8c0,0.06,0.04,0.1,0.1,0.1h3.8c0.06,0,0.1-0.04,0.1-0.1v-3.8C24.5,29.54,24.46,29.5,24.4,29.5z M24,33h-3v-3h3V33z M24.4,29.5
	h-3.8c-0.06,0-0.1,0.04-0.1,0.1v3.8c0,0.06,0.04,0.1,0.1,0.1h3.8c0.06,0,0.1-0.04,0.1-0.1v-3.8C24.5,29.54,24.46,29.5,24.4,29.5z
	 M24,33h-3v-3h3V33z M24.4,29.5h-3.8c-0.06,0-0.1,0.04-0.1,0.1v3.8c0,0.06,0.04,0.1,0.1,0.1h3.8c0.06,0,0.1-0.04,0.1-0.1v-3.8
	C24.5,29.54,24.46,29.5,24.4,29.5z M24,33h-3v-3h3V33z M25.9,14.5h-3.8c-0.06,0-0.1,0.04-0.1,0.1v3.8c0,0.06,0.04,0.1,0.1,0.1h3.8
	c0.06,0,0.1-0.04,0.1-0.1v-3.8C26,14.54,25.96,14.5,25.9,14.5z M25.5,18h-3v-3h3V18z M24.4,29.5h-3.8c-0.06,0-0.1,0.04-0.1,0.1v3.8
	c0,0.06,0.04,0.1,0.1,0.1h3.8c0.06,0,0.1-0.04,0.1-0.1v-3.8C24.5,29.54,24.46,29.5,24.4,29.5z M24,33h-3v-3h3V33z M25.9,14.5h-3.8
	c-0.06,0-0.1,0.04-0.1,0.1v3.8c0,0.06,0.04,0.1,0.1,0.1h3.8c0.06,0,0.1-0.04,0.1-0.1v-3.8C26,14.54,25.96,14.5,25.9,14.5z M25.5,18
	h-3v-3h3V18z M24.4,29.5h-3.8c-0.06,0-0.1,0.04-0.1,0.1v3.8c0,0.06,0.04,0.1,0.1,0.1h3.8c0.06,0,0.1-0.04,0.1-0.1v-3.8
	C24.5,29.54,24.46,29.5,24.4,29.5z M24,33h-3v-3h3V33z M25.9,14.5h-3.8c-0.06,0-0.1,0.04-0.1,0.1v3.8c0,0.06,0.04,0.1,0.1,0.1h3.8
	c0.06,0,0.1-0.04,0.1-0.1v-3.8C26,14.54,25.96,14.5,25.9,14.5z M25.5,18h-3v-3h3V18z M24.4,29.5h-3.8c-0.06,0-0.1,0.04-0.1,0.1v3.8
	c0,0.06,0.04,0.1,0.1,0.1h3.8c0.06,0,0.1-0.04,0.1-0.1v-3.8C24.5,29.54,24.46,29.5,24.4,29.5z M24,33h-3v-3h3V33z M25.9,14.5h-3.8
	c-0.06,0-0.1,0.04-0.1,0.1v3.8c0,0.06,0.04,0.1,0.1,0.1h3.8c0.06,0,0.1-0.04,0.1-0.1v-3.8C26,14.54,25.96,14.5,25.9,14.5z M25.5,18
	h-3v-3h3V18z M24.4,29.5h-3.8c-0.06,0-0.1,0.04-0.1,0.1v3.8c0,0.06,0.04,0.1,0.1,0.1h3.8c0.06,0,0.1-0.04,0.1-0.1v-3.8
	C24.5,29.54,24.46,29.5,24.4,29.5z M24,33h-3v-3h3V33z M25.9,14.5h-3.8c-0.06,0-0.1,0.04-0.1,0.1v3.8c0,0.06,0.04,0.1,0.1,0.1h3.8
	c0.06,0,0.1-0.04,0.1-0.1v-3.8C26,14.54,25.96,14.5,25.9,14.5z M25.5,18h-3v-3h3V18z M24.4,29.5h-3.8c-0.06,0-0.1,0.04-0.1,0.1v3.8
	c0,0.06,0.04,0.1,0.1,0.1h3.8c0.06,0,0.1-0.04,0.1-0.1v-3.8C24.5,29.54,24.46,29.5,24.4,29.5z M24,33h-3v-3h3V33z M25.9,14.5h-3.8
	c-0.06,0-0.1,0.04-0.1,0.1v3.8c0,0.06,0.04,0.1,0.1,0.1h3.8c0.06,0,0.1-0.04,0.1-0.1v-3.8C26,14.54,25.96,14.5,25.9,14.5z M25.5,18
	h-3v-3h3V18z M24.4,29.5h-3.8c-0.06,0-0.1,0.04-0.1,0.1v3.8c0,0.06,0.04,0.1,0.1,0.1h3.8c0.06,0,0.1-0.04,0.1-0.1v-3.8
	C24.5,29.54,24.46,29.5,24.4,29.5z M24,33h-3v-3h3V33z M25.9,14.5h-3.8c-0.06,0-0.1,0.04-0.1,0.1v3.8c0,0.06,0.04,0.1,0.1,0.1h3.8
	c0.06,0,0.1-0.04,0.1-0.1v-3.8C26,14.54,25.96,14.5,25.9,14.5z M25.5,18h-3v-3h3V18z M24.4,29.5h-3.8c-0.06,0-0.1,0.04-0.1,0.1v3.8
	c0,0.06,0.04,0.1,0.1,0.1h3.8c0.06,0,0.1-0.04,0.1-0.1v-3.8C24.5,29.54,24.46,29.5,24.4,29.5z M24,33h-3v-3h3V33z M25.9,14.5h-3.8
	c-0.06,0-0.1,0.04-0.1,0.1v3.8c0,0.06,0.04,0.1,0.1,0.1h3.8c0.06,0,0.1-0.04,0.1-0.1v-3.8C26,14.54,25.96,14.5,25.9,14.5z M25.5,18
	h-3v-3h3V18z M40,23.4v-9.8c0-1.43-1.17-2.6-2.6-2.6h-5.8c-1.04,0-1.93,0.61-2.35,1.49C28.83,11.61,27.94,11,26.9,11h-5.8
	c-1.04,0-1.93,0.61-2.35,1.49C18.33,11.61,17.44,11,16.4,11h-5.8C9.17,11,8,12.17,8,13.6v5.8c0,1.43,1.17,2.6,2.6,2.6H8v4h2.6
	C9.17,26,8,27.17,8,28.6v5.8c0,1.43,1.17,2.6,2.6,2.6h6.9v-1.07c0.47,0.65,1.24,1.07,2.1,1.07h5.8c0.86,0,1.63-0.42,2.1-1.07V37h4
	v-7h0.25v7h4v-7H36v7h4V26h-2.6C38.83,26,40,24.83,40,23.4z M19,13.6c0-1.16,0.94-2.1,2.1-2.1h5.8c1.16,0,2.1,0.94,2.1,2.1v5.8
	c0,1.16-0.94,2.1-2.1,2.1h-5.8c-1.16,0-2.1-0.94-2.1-2.1V13.6z M8.5,25.5v-3h6.9c0.06,0,0.1-0.04,0.1-0.1v-7.8
	c0-0.06-0.04-0.1-0.1-0.1h-3.8c-0.06,0-0.1,0.04-0.1,0.1v3.8c0,0.06,0.04,0.1,0.1,0.1H15v3h-4.4c-1.16,0-2.1-0.94-2.1-2.1v-5.8
	c0-1.16,0.94-2.1,2.1-2.1h5.8c1.16,0,2.1,0.94,2.1,2.1v9.8c0,1.16-0.94,2.1-2.1,2.1H8.5z M15,18h-3v-3h3V18z M17,33h-5v-3h5V33z
	 M17,29.5h-5.4c-0.06,0-0.1,0.04-0.1,0.1v3.8c0,0.06,0.04,0.1,0.1,0.1H17v3h-6.4c-1.16,0-2.1-0.94-2.1-2.1v-5.8
	c0-1.16,0.94-2.1,2.1-2.1H17V29.5z M27.5,34.4c0,1.16-0.94,2.1-2.1,2.1h-5.8c-1.16,0-2.1-0.94-2.1-2.1v-5.8c0-1.16,0.94-2.1,2.1-2.1
	h5.8c1.16,0,2.1,0.94,2.1,2.1V34.4z M25.4,26h-5.8c-0.86,0-1.63,0.42-2.1,1.07V26h-1c1.38-0.05,2.5-1.2,2.5-2.6v-2.47
	c0.47,0.65,1.24,1.07,2.1,1.07h5.8c1.04,0,1.93-0.61,2.35-1.49C29.67,21.39,30.56,22,31.6,22H29v4h1.1c-1.04,0-1.93,0.61-2.35,1.49
	C27.33,26.61,26.44,26,25.4,26z M39.5,26.5v10h-3v-7h-1.15c-0.06,0-0.1,0.04-0.1,0.1v6.9h-3v-7H31.1c-0.06,0-0.1,0.04-0.1,0.1v6.9
	h-3v-7.9c0-1.16,0.94-2.1,2.1-2.1H39.5z M37.4,25.5h-7.9v-3h6.9c0.06,0,0.1-0.04,0.1-0.1v-7.8c0-0.06-0.04-0.1-0.1-0.1h-3.8
	c-0.06,0-0.1,0.04-0.1,0.1v3.8c0,0.06,0.04,0.1,0.1,0.1H36v3h-4.4c-1.16,0-2.1-0.94-2.1-2.1v-5.8c0-1.16,0.94-2.1,2.1-2.1h5.8
	c1.16,0,2.1,0.94,2.1,2.1v9.8C39.5,24.56,38.56,25.5,37.4,25.5z M36,18h-3v-3h3V18z M22.1,18.5h3.8c0.06,0,0.1-0.04,0.1-0.1v-3.8
	c0-0.06-0.04-0.1-0.1-0.1h-3.8c-0.06,0-0.1,0.04-0.1,0.1v3.8C22,18.46,22.04,18.5,22.1,18.5z M22.5,15h3v3h-3V15z M24.4,29.5h-3.8
	c-0.06,0-0.1,0.04-0.1,0.1v3.8c0,0.06,0.04,0.1,0.1,0.1h3.8c0.06,0,0.1-0.04,0.1-0.1v-3.8C24.5,29.54,24.46,29.5,24.4,29.5z M24,33
	h-3v-3h3V33z M25.9,14.5h-3.8c-0.06,0-0.1,0.04-0.1,0.1v3.8c0,0.06,0.04,0.1,0.1,0.1h3.8c0.06,0,0.1-0.04,0.1-0.1v-3.8
	C26,14.54,25.96,14.5,25.9,14.5z M25.5,18h-3v-3h3V18z M24.4,29.5h-3.8c-0.06,0-0.1,0.04-0.1,0.1v3.8c0,0.06,0.04,0.1,0.1,0.1h3.8
	c0.06,0,0.1-0.04,0.1-0.1v-3.8C24.5,29.54,24.46,29.5,24.4,29.5z M24,33h-3v-3h3V33z M25.9,14.5h-3.8c-0.06,0-0.1,0.04-0.1,0.1v3.8
	c0,0.06,0.04,0.1,0.1,0.1h3.8c0.06,0,0.1-0.04,0.1-0.1v-3.8C26,14.54,25.96,14.5,25.9,14.5z M25.5,18h-3v-3h3V18z M24.4,29.5h-3.8
	c-0.06,0-0.1,0.04-0.1,0.1v3.8c0,0.06,0.04,0.1,0.1,0.1h3.8c0.06,0,0.1-0.04,0.1-0.1v-3.8C24.5,29.54,24.46,29.5,24.4,29.5z M24,33
	h-3v-3h3V33z M25.9,14.5h-3.8c-0.06,0-0.1,0.04-0.1,0.1v3.8c0,0.06,0.04,0.1,0.1,0.1h3.8c0.06,0,0.1-0.04,0.1-0.1v-3.8
	C26,14.54,25.96,14.5,25.9,14.5z M25.5,18h-3v-3h3V18z M24.4,29.5h-3.8c-0.06,0-0.1,0.04-0.1,0.1v3.8c0,0.06,0.04,0.1,0.1,0.1h3.8
	c0.06,0,0.1-0.04,0.1-0.1v-3.8C24.5,29.54,24.46,29.5,24.4,29.5z M24,33h-3v-3h3V33z M25.9,14.5h-3.8c-0.06,0-0.1,0.04-0.1,0.1v3.8
	c0,0.06,0.04,0.1,0.1,0.1h3.8c0.06,0,0.1-0.04,0.1-0.1v-3.8C26,14.54,25.96,14.5,25.9,14.5z M25.5,18h-3v-3h3V18z M24.4,29.5h-3.8
	c-0.06,0-0.1,0.04-0.1,0.1v3.8c0,0.06,0.04,0.1,0.1,0.1h3.8c0.06,0,0.1-0.04,0.1-0.1v-3.8C24.5,29.54,24.46,29.5,24.4,29.5z M24,33
	h-3v-3h3V33z M25.9,14.5h-3.8c-0.06,0-0.1,0.04-0.1,0.1v3.8c0,0.06,0.04,0.1,0.1,0.1h3.8c0.06,0,0.1-0.04,0.1-0.1v-3.8
	C26,14.54,25.96,14.5,25.9,14.5z M25.5,18h-3v-3h3V18z M24.4,29.5h-3.8c-0.06,0-0.1,0.04-0.1,0.1v3.8c0,0.06,0.04,0.1,0.1,0.1h3.8
	c0.06,0,0.1-0.04,0.1-0.1v-3.8C24.5,29.54,24.46,29.5,24.4,29.5z M24,33h-3v-3h3V33z M25.9,14.5h-3.8c-0.06,0-0.1,0.04-0.1,0.1v3.8
	c0,0.06,0.04,0.1,0.1,0.1h3.8c0.06,0,0.1-0.04,0.1-0.1v-3.8C26,14.54,25.96,14.5,25.9,14.5z M25.5,18h-3v-3h3V18z M24.4,29.5h-3.8
	c-0.06,0-0.1,0.04-0.1,0.1v3.8c0,0.06,0.04,0.1,0.1,0.1h3.8c0.06,0,0.1-0.04,0.1-0.1v-3.8C24.5,29.54,24.46,29.5,24.4,29.5z M24,33
	h-3v-3h3V33z"/>
<path style="fill:#FFFFFF;" d="M16.5,36h-5.9C9.717,36,9,35.284,9,34.4v-5.8c0-0.883,0.716-1.6,1.6-1.6h5.9v2h-4.9
	c-0.331,0-0.6,0.269-0.6,0.6v3.8c0,0.331,0.269,0.6,0.6,0.6h4.9V36z M26.9,21h-5.8c-0.882,0-1.6-0.718-1.6-1.6v-5.8
	c0-0.882,0.718-1.6,1.6-1.6h5.8c0.882,0,1.6,0.718,1.6,1.6v5.8C28.5,20.282,27.782,21,26.9,21z M22.1,19h3.8
	c0.331,0,0.6-0.269,0.6-0.6v-3.8c0-0.331-0.269-0.6-0.6-0.6h-3.8c-0.331,0-0.6,0.269-0.6,0.6v3.8C21.5,18.731,21.769,19,22.1,19z
	 M25.4,36h-5.8c-0.882,0-1.6-0.718-1.6-1.6v-5.8c0-0.882,0.718-1.6,1.6-1.6h5.8c0.882,0,1.6,0.718,1.6,1.6v5.8
	C27,35.282,26.282,36,25.4,36z M20.6,34h3.8c0.331,0,0.6-0.269,0.6-0.6v-3.8c0-0.331-0.269-0.6-0.6-0.6h-3.8
	c-0.331,0-0.6,0.269-0.6,0.6v3.8C20,33.731,20.269,34,20.6,34z M30.1,27c-0.883,0-1.6,0.716-1.6,1.6V36h2v-6.4
	c0-0.331,0.269-0.6,0.6-0.6h1.65v7h2v-6.4c0-0.331,0.269-0.6,0.6-0.6H37v7h2v-9H30.1z M37.4,25H30v-2h6.4c0.331,0,0.6-0.269,0.6-0.6
	v-7.8c0-0.331-0.269-0.6-0.6-0.6h-3.8c-0.331,0-0.6,0.269-0.6,0.6v3.8c0,0.331,0.269,0.6,0.6,0.6h2.9v2h-3.9
	c-0.883,0-1.6-0.716-1.6-1.6v-5.8c0-0.884,0.716-1.6,1.6-1.6h5.8c0.883,0,1.6,0.716,1.6,1.6v9.8C39,24.284,38.284,25,37.4,25z
	 M16.4,25H9v-2h6.4c0.331,0,0.6-0.269,0.6-0.6v-7.8c0-0.331-0.269-0.6-0.6-0.6h-3.8c-0.331,0-0.6,0.269-0.6,0.6v3.8
	c0,0.331,0.269,0.6,0.6,0.6h2.9v2h-3.9C9.717,21,9,20.284,9,19.4v-5.8c0-0.884,0.716-1.6,1.6-1.6h5.8c0.883,0,1.6,0.716,1.6,1.6v9.8
	C18,24.284,17.284,25,16.4,25z"/>
<g style="opacity:0.07;">
	<path d="M37.4,12c0.883,0,1.6,0.716,1.6,1.6v9.8c0,0.884-0.716,1.6-1.6,1.6H30v-2h6.4c0.331,0,0.6-0.269,0.6-0.6v-7.8
		c0-0.331-0.269-0.6-0.6-0.6h-3.8c-0.331,0-0.6,0.269-0.6,0.6v3.8c0,0.331,0.269,0.6,0.6,0.6h2.9v2h-3.9c-0.883,0-1.6-0.716-1.6-1.6
		v-5.8c0-0.884,0.716-1.6,1.6-1.6H37.4 M26.9,12c0.882,0,1.6,0.718,1.6,1.6v5.8c0,0.882-0.718,1.6-1.6,1.6h-5.8
		c-0.882,0-1.6-0.718-1.6-1.6v-5.8c0-0.882,0.718-1.6,1.6-1.6H26.9 M22.1,19h3.8c0.331,0,0.6-0.269,0.6-0.6v-3.8
		c0-0.331-0.269-0.6-0.6-0.6h-3.8c-0.331,0-0.6,0.269-0.6,0.6v3.8C21.5,18.731,21.769,19,22.1,19 M16.4,12
		c0.883,0,1.6,0.716,1.6,1.6v9.8c0,0.884-0.716,1.6-1.6,1.6H9v-2h6.4c0.331,0,0.6-0.269,0.6-0.6v-7.8c0-0.331-0.269-0.6-0.6-0.6
		h-3.8c-0.331,0-0.6,0.269-0.6,0.6v3.8c0,0.331,0.269,0.6,0.6,0.6h2.9v2h-3.9C9.717,21,9,20.284,9,19.4v-5.8
		c0-0.884,0.716-1.6,1.6-1.6H16.4 M39,27v9h-2v-7h-1.65c-0.331,0-0.6,0.269-0.6,0.6V36h-2v-7H31.1c-0.331,0-0.6,0.269-0.6,0.6V36h-2
		v-7.4c0-0.884,0.717-1.6,1.6-1.6H39 M25.4,27c0.882,0,1.6,0.718,1.6,1.6v5.8c0,0.882-0.718,1.6-1.6,1.6h-5.8
		c-0.882,0-1.6-0.718-1.6-1.6v-5.8c0-0.882,0.718-1.6,1.6-1.6H25.4 M20.6,34h3.8c0.331,0,0.6-0.269,0.6-0.6v-3.8
		c0-0.331-0.269-0.6-0.6-0.6h-3.8c-0.331,0-0.6,0.269-0.6,0.6v3.8C20,33.731,20.269,34,20.6,34 M16.5,27v2h-4.9
		c-0.331,0-0.6,0.269-0.6,0.6v3.8c0,0.331,0.269,0.6,0.6,0.6h4.9v2h-5.9C9.717,36,9,35.284,9,34.4v-5.8c0-0.883,0.716-1.6,1.6-1.6
		H16.5 M37.4,11.5h-5.8c-1.158,0-2.1,0.942-2.1,2.1v5.8c0,1.158,0.942,2.1,2.1,2.1h3.9H36V21v-2v-0.5h-0.5h-2.9
		c-0.055,0-0.1-0.045-0.1-0.1v-3.8c0-0.055,0.045-0.1,0.1-0.1h3.8c0.055,0,0.1,0.045,0.1,0.1v7.8c0,0.055-0.045,0.1-0.1,0.1H30h-0.5
		V23v2v0.5H30h7.4c1.158,0,2.1-0.942,2.1-2.1v-9.8C39.5,12.442,38.558,11.5,37.4,11.5L37.4,11.5z M26.9,11.5h-5.8
		c-1.158,0-2.1,0.942-2.1,2.1v5.8c0,1.158,0.942,2.1,2.1,2.1h5.8c1.158,0,2.1-0.942,2.1-2.1v-5.8C29,12.442,28.058,11.5,26.9,11.5
		L26.9,11.5z M22.1,18.5c-0.055,0-0.1-0.045-0.1-0.1v-3.8c0-0.055,0.045-0.1,0.1-0.1h3.8c0.055,0,0.1,0.045,0.1,0.1v3.8
		c0,0.055-0.045,0.1-0.1,0.1H22.1L22.1,18.5z M16.4,11.5h-5.8c-1.158,0-2.1,0.942-2.1,2.1v5.8c0,1.158,0.942,2.1,2.1,2.1h3.9H15V21
		v-2v-0.5h-0.5h-2.9c-0.055,0-0.1-0.045-0.1-0.1v-3.8c0-0.055,0.045-0.1,0.1-0.1h3.8c0.055,0,0.1,0.045,0.1,0.1v7.8
		c0,0.055-0.045,0.1-0.1,0.1H9H8.5V23v2v0.5H9h7.4c1.158,0,2.1-0.942,2.1-2.1v-9.8C18.5,12.442,17.558,11.5,16.4,11.5L16.4,11.5z
		 M39.5,26.5H39h-8.9c-1.158,0-2.1,0.942-2.1,2.1V36v0.5h0.5h2H31V36v-6.4c0-0.055,0.045-0.1,0.1-0.1h1.15V36v0.5h0.5h2h0.5V36v-6.4
		c0-0.055,0.045-0.1,0.1-0.1h1.15V36v0.5H37h2h0.5V36v-9V26.5L39.5,26.5z M25.4,26.5h-5.8c-1.158,0-2.1,0.942-2.1,2.1v5.8
		c0,1.158,0.942,2.1,2.1,2.1h5.8c1.158,0,2.1-0.942,2.1-2.1v-5.8C27.5,27.442,26.558,26.5,25.4,26.5L25.4,26.5z M20.6,33.5
		c-0.055,0-0.1-0.045-0.1-0.1v-3.8c0-0.055,0.045-0.1,0.1-0.1h3.8c0.055,0,0.1,0.045,0.1,0.1v3.8c0,0.055-0.045,0.1-0.1,0.1H20.6
		L20.6,33.5z M17,26.5h-0.5h-5.9c-1.158,0-2.1,0.942-2.1,2.1v5.8c0,1.158,0.942,2.1,2.1,2.1h5.9H17V36v-2v-0.5h-0.5h-4.9
		c-0.055,0-0.1-0.045-0.1-0.1v-3.8c0-0.055,0.045-0.1,0.1-0.1h4.9H17V29v-2V26.5L17,26.5z"/>
</g>
<g style="opacity:0.07;">
	<path d="M37.4,12c0.883,0,1.6,0.716,1.6,1.6v9.8c0,0.884-0.716,1.6-1.6,1.6H30v-2h6.4c0.331,0,0.6-0.269,0.6-0.6v-7.8
		c0-0.331-0.269-0.6-0.6-0.6h-3.8c-0.331,0-0.6,0.269-0.6,0.6v3.8c0,0.331,0.269,0.6,0.6,0.6h2.9v2h-3.9c-0.883,0-1.6-0.716-1.6-1.6
		v-5.8c0-0.884,0.716-1.6,1.6-1.6H37.4 M26.9,12c0.882,0,1.6,0.718,1.6,1.6v5.8c0,0.882-0.718,1.6-1.6,1.6h-5.8
		c-0.882,0-1.6-0.718-1.6-1.6v-5.8c0-0.882,0.718-1.6,1.6-1.6H26.9 M22.1,19h3.8c0.331,0,0.6-0.269,0.6-0.6v-3.8
		c0-0.331-0.269-0.6-0.6-0.6h-3.8c-0.331,0-0.6,0.269-0.6,0.6v3.8C21.5,18.731,21.769,19,22.1,19 M16.4,12
		c0.883,0,1.6,0.716,1.6,1.6v9.8c0,0.884-0.716,1.6-1.6,1.6H9v-2h6.4c0.331,0,0.6-0.269,0.6-0.6v-7.8c0-0.331-0.269-0.6-0.6-0.6
		h-3.8c-0.331,0-0.6,0.269-0.6,0.6v3.8c0,0.331,0.269,0.6,0.6,0.6h2.9v2h-3.9C9.717,21,9,20.284,9,19.4v-5.8
		c0-0.884,0.716-1.6,1.6-1.6H16.4 M39,27v9h-2v-7h-1.65c-0.331,0-0.6,0.269-0.6,0.6V36h-2v-7H31.1c-0.331,0-0.6,0.269-0.6,0.6V36h-2
		v-7.4c0-0.884,0.717-1.6,1.6-1.6H39 M25.4,27c0.882,0,1.6,0.718,1.6,1.6v5.8c0,0.882-0.718,1.6-1.6,1.6h-5.8
		c-0.882,0-1.6-0.718-1.6-1.6v-5.8c0-0.882,0.718-1.6,1.6-1.6H25.4 M20.6,34h3.8c0.331,0,0.6-0.269,0.6-0.6v-3.8
		c0-0.331-0.269-0.6-0.6-0.6h-3.8c-0.331,0-0.6,0.269-0.6,0.6v3.8C20,33.731,20.269,34,20.6,34 M16.5,27v2h-4.9
		c-0.331,0-0.6,0.269-0.6,0.6v3.8c0,0.331,0.269,0.6,0.6,0.6h4.9v2h-5.9C9.717,36,9,35.284,9,34.4v-5.8c0-0.883,0.716-1.6,1.6-1.6
		H16.5 M37.4,11.5h-5.8c-1.158,0-2.1,0.942-2.1,2.1v5.8c0,1.158,0.942,2.1,2.1,2.1h3.9H36V21v-2v-0.5h-0.5h-2.9
		c-0.055,0-0.1-0.045-0.1-0.1v-3.8c0-0.055,0.045-0.1,0.1-0.1h3.8c0.055,0,0.1,0.045,0.1,0.1v7.8c0,0.055-0.045,0.1-0.1,0.1H30h-0.5
		V23v2v0.5H30h7.4c1.158,0,2.1-0.942,2.1-2.1v-9.8C39.5,12.442,38.558,11.5,37.4,11.5L37.4,11.5z M26.9,11.5h-5.8
		c-1.158,0-2.1,0.942-2.1,2.1v5.8c0,1.158,0.942,2.1,2.1,2.1h5.8c1.158,0,2.1-0.942,2.1-2.1v-5.8C29,12.442,28.058,11.5,26.9,11.5
		L26.9,11.5z M22.1,18.5c-0.055,0-0.1-0.045-0.1-0.1v-3.8c0-0.055,0.045-0.1,0.1-0.1h3.8c0.055,0,0.1,0.045,0.1,0.1v3.8
		c0,0.055-0.045,0.1-0.1,0.1H22.1L22.1,18.5z M16.4,11.5h-5.8c-1.158,0-2.1,0.942-2.1,2.1v5.8c0,1.158,0.942,2.1,2.1,2.1h3.9H15V21
		v-2v-0.5h-0.5h-2.9c-0.055,0-0.1-0.045-0.1-0.1v-3.8c0-0.055,0.045-0.1,0.1-0.1h3.8c0.055,0,0.1,0.045,0.1,0.1v7.8
		c0,0.055-0.045,0.1-0.1,0.1H9H8.5V23v2v0.5H9h7.4c1.158,0,2.1-0.942,2.1-2.1v-9.8C18.5,12.442,17.558,11.5,16.4,11.5L16.4,11.5z
		 M39.5,26.5H39h-8.9c-1.158,0-2.1,0.942-2.1,2.1V36v0.5h0.5h2H31V36v-6.4c0-0.055,0.045-0.1,0.1-0.1h1.15V36v0.5h0.5h2h0.5V36v-6.4
		c0-0.055,0.045-0.1,0.1-0.1h1.15V36v0.5H37h2h0.5V36v-9V26.5L39.5,26.5z M25.4,26.5h-5.8c-1.158,0-2.1,0.942-2.1,2.1v5.8
		c0,1.158,0.942,2.1,2.1,2.1h5.8c1.158,0,2.1-0.942,2.1-2.1v-5.8C27.5,27.442,26.558,26.5,25.4,26.5L25.4,26.5z M20.6,33.5
		c-0.055,0-0.1-0.045-0.1-0.1v-3.8c0-0.055,0.045-0.1,0.1-0.1h3.8c0.055,0,0.1,0.045,0.1,0.1v3.8c0,0.055-0.045,0.1-0.1,0.1H20.6
		L20.6,33.5z M17,26.5h-0.5h-5.9c-1.158,0-2.1,0.942-2.1,2.1v5.8c0,1.158,0.942,2.1,2.1,2.1h5.9H17V36v-2v-0.5h-0.5h-4.9
		c-0.055,0-0.1-0.045-0.1-0.1v-3.8c0-0.055,0.045-0.1,0.1-0.1h4.9H17V29v-2V26.5L17,26.5z"/>
</g>
</svg>