<?xml version="1.0" encoding="iso-8859-1"?>
<!-- Generator: Adobe Illustrator 24.2.1, SVG Export Plug-In . SVG Version: 6.00 Build 0)  -->
<svg version="1.1" id="Layer_1" xmlns="http://www.w3.org/2000/svg" xmlns:xlink="http://www.w3.org/1999/xlink" x="0px" y="0px"
	 viewBox="0 0 48 48" style="enable-background:new 0 0 48 48;" xml:space="preserve">
<g>
</g>
<linearGradient id="SVGID_1_" gradientUnits="userSpaceOnUse" x1="24.0002" y1="44" x2="24.0002" y2="4">
	<stop  offset="0" style="stop-color:#0176D0"/>
	<stop  offset="1" style="stop-color:#16538C"/>
</linearGradient>
<path style="fill:url(#SVGID_1_);" d="M44,24c0,11.04-8.96,20-20,20c-8.39,0-15.57-5.16-18.53-12.48c-0.09-0.2-0.16-0.4-0.24-0.6
	c-0.07-0.19-0.14-0.39-0.2-0.59C4.36,28.34,4,26.21,4,24c0-0.17,0-0.35,0.02-0.52c-0.01-0.17,0-0.35,0.01-0.52
	C4.57,12.4,13.3,4,24,4C35.04,4,44,12.95,44,24z"/>
<g>
	<circle style="fill:#FFFFFF;" cx="28.5" cy="18.5" r="3.5"/>
	<path style="opacity:0.07;" d="M28.5,14.5c-2.21,0-4,1.79-4,4c0,2.21,1.79,4,4,4s4-1.79,4-4C32.5,16.29,30.71,14.5,28.5,14.5z
		 M28.5,22c-1.93,0-3.5-1.57-3.5-3.5s1.57-3.5,3.5-3.5s3.5,1.57,3.5,3.5S30.43,22,28.5,22z"/>
	<path style="fill:#FFFFFF;" d="M28.5,10c-4.69,0-8.5,3.81-8.5,8.5c0,0.18,0.02,0.35,0.03,0.52L17,24c-2.07,0-3.92,0.9-5.2,2.32
		L4,24c0,2.21,0.36,4.34,1.03,6.33l5.04,1.61C10.53,35.36,13.45,38,17,38c3.87,0,7-3.13,7-7c0-0.37-0.04-0.73-0.09-1.08l5.06-2.94
		C33.44,26.73,37,23.03,37,18.5C37,13.81,33.19,10,28.5,10z M17,36c-2.18,0-4.02-1.41-4.7-3.35l3.75,1.19l0.01-0.01
		c0,0.01,0.01,0.01,0.02,0.01c0.14,0.04,0.27,0.08,0.41,0.11C16.66,33.98,16.83,34,17,34c1.66,0,3-1.34,3-3
		c0-1.3-0.85-2.41-2.02-2.82c-0.01-0.01-0.03-0.03-0.03-0.03l-3.91-1.16C14.87,26.38,15.89,26,17,26c2.76,0,5,2.24,5,5
		S19.76,36,17,36z M28.5,24c-3.04,0-5.5-2.46-5.5-5.5c0-3.04,2.46-5.5,5.5-5.5s5.5,2.46,5.5,5.5C34,21.54,31.54,24,28.5,24z"/>
	<path style="opacity:0.05;" d="M33.4,17.49c-0.07-0.32-0.17-0.63-0.29-0.93c-0.06-0.15-0.14-0.3-0.21-0.44
		c-0.47-0.85-1.17-1.55-2.02-2.02c-0.14-0.07-0.29-0.15-0.44-0.21c-0.3-0.12-0.61-0.22-0.93-0.29c-0.33-0.06-0.67-0.1-1.01-0.1
		s-0.68,0.04-1.01,0.1c-0.32,0.07-0.63,0.17-0.93,0.29c-0.15,0.06-0.3,0.14-0.44,0.21c-0.85,0.47-1.55,1.17-2.02,2.02
		c-0.07,0.14-0.15,0.29-0.21,0.44c-0.12,0.3-0.22,0.61-0.29,0.93c-0.06,0.33-0.1,0.67-0.1,1.01c0,0.34,0.04,0.68,0.1,1.01
		c0.07,0.32,0.17,0.63,0.29,0.93c0.06,0.15,0.14,0.3,0.21,0.44c0.47,0.85,1.17,1.55,2.02,2.02c0.14,0.07,0.29,0.15,0.44,0.21
		c0.3,0.12,0.61,0.22,0.93,0.29c0.33,0.06,0.67,0.1,1.01,0.1s0.68-0.04,1.01-0.1c0.32-0.07,0.63-0.17,0.93-0.29
		c0.15-0.06,0.3-0.14,0.44-0.21c0.85-0.47,1.55-1.17,2.02-2.02c0.07-0.14,0.15-0.29,0.21-0.44c0.12-0.3,0.22-0.61,0.29-0.93
		c0.06-0.33,0.1-0.67,0.1-1.01C33.5,18.16,33.46,17.82,33.4,17.49z M28.5,22.5c-2.21,0-4-1.79-4-4c0-2.21,1.79-4,4-4s4,1.79,4,4
		C32.5,20.71,30.71,22.5,28.5,22.5z M17,26.5c-0.59,0-1.16,0.12-1.7,0.34l2.79,0.83l0.12,0.06l0.01,0.01
		c1.37,0.51,2.28,1.81,2.28,3.26c0,1.93-1.57,3.5-3.5,3.5c-0.19,0-0.39-0.02-0.59-0.06h-0.03l-0.01,0.03l-0.47-0.15l-2.63-0.84
		c0.82,1.24,2.21,2.02,3.73,2.02c2.48,0,4.5-2.02,4.5-4.5C21.5,28.52,19.48,26.5,17,26.5z M17,26.5c-0.59,0-1.16,0.12-1.7,0.34
		l2.79,0.83l0.12,0.06l0.01,0.01c1.37,0.51,2.28,1.81,2.28,3.26c0,1.93-1.57,3.5-3.5,3.5c-0.19,0-0.39-0.02-0.59-0.06h-0.03
		l-0.01,0.03l-0.47-0.15l-2.63-0.84c0.82,1.24,2.21,2.02,3.73,2.02c2.48,0,4.5-2.02,4.5-4.5C21.5,28.52,19.48,26.5,17,26.5z M28.5,9
		c-5.24,0-9.5,4.26-9.5,9.5c0,0.09,0,0.18,0.01,0.27l-2.58,4.25c-1.84,0.13-3.58,0.9-4.92,2.17l-7.22-2.15l-0.26-0.08
		c-0.01,0.17-0.02,0.35-0.01,0.52l0.12,0.04l7.51,2.24c1.34-1.37,3.16-2.18,5.07-2.25l2.8-4.61c-0.01-0.13-0.02-0.27-0.02-0.4
		c0-4.96,4.04-9,9-9s9,4.04,9,9c0,4.73-3.67,8.64-8.38,8.97l-4.67,2.72c0.03,0.28,0.05,0.55,0.05,0.81c0,4.14-3.36,7.5-7.5,7.5
		c-3.63,0-6.75-2.64-7.38-6.18l-4.39-1.4c0.08,0.2,0.15,0.4,0.24,0.6l3.72,1.19C9.98,36.34,13.23,39,17,39c4.41,0,8-3.59,8-8
		c0-0.18-0.01-0.36-0.02-0.54l4.29-2.5c4.92-0.4,8.73-4.51,8.73-9.46C38,13.26,33.74,9,28.5,9z M17,34.5
		c-0.19,0-0.39-0.02-0.59-0.06h-0.03l-0.01,0.03l-0.47-0.15l-2.63-0.84c0.82,1.24,2.21,2.02,3.73,2.02c2.48,0,4.5-2.02,4.5-4.5
		c0-2.48-2.02-4.5-4.5-4.5c-0.59,0-1.16,0.12-1.7,0.34l2.79,0.83l0.12,0.06l0.01,0.01c1.37,0.51,2.28,1.81,2.28,3.26
		C20.5,32.93,18.93,34.5,17,34.5z M17,26.5c-0.59,0-1.16,0.12-1.7,0.34l2.79,0.83l0.12,0.06l0.01,0.01
		c1.37,0.51,2.28,1.81,2.28,3.26c0,1.93-1.57,3.5-3.5,3.5c-0.19,0-0.39-0.02-0.59-0.06h-0.03l-0.01,0.03l-0.47-0.15l-2.63-0.84
		c0.82,1.24,2.21,2.02,3.73,2.02c2.48,0,4.5-2.02,4.5-4.5C21.5,28.52,19.48,26.5,17,26.5z M17,26.5c-0.59,0-1.16,0.12-1.7,0.34
		l2.79,0.83l0.12,0.06l0.01,0.01c1.37,0.51,2.28,1.81,2.28,3.26c0,1.93-1.57,3.5-3.5,3.5c-0.19,0-0.39-0.02-0.59-0.06h-0.03
		l-0.01,0.03l-0.47-0.15l-2.63-0.84c0.82,1.24,2.21,2.02,3.73,2.02c2.48,0,4.5-2.02,4.5-4.5C21.5,28.52,19.48,26.5,17,26.5z
		 M17,26.5c-0.59,0-1.16,0.12-1.7,0.34l2.79,0.83l0.12,0.06l0.01,0.01c1.37,0.51,2.28,1.81,2.28,3.26c0,1.93-1.57,3.5-3.5,3.5
		c-0.19,0-0.39-0.02-0.59-0.06h-0.03l-0.01,0.03l-0.47-0.15l-2.63-0.84c0.82,1.24,2.21,2.02,3.73,2.02c2.48,0,4.5-2.02,4.5-4.5
		C21.5,28.52,19.48,26.5,17,26.5z M17,26.5c-0.59,0-1.16,0.12-1.7,0.34l2.79,0.83l0.12,0.06l0.01,0.01
		c1.37,0.51,2.28,1.81,2.28,3.26c0,1.93-1.57,3.5-3.5,3.5c-0.19,0-0.39-0.02-0.59-0.06h-0.03l-0.01,0.03l-0.47-0.15l-2.63-0.84
		c0.82,1.24,2.21,2.02,3.73,2.02c2.48,0,4.5-2.02,4.5-4.5C21.5,28.52,19.48,26.5,17,26.5z"/>
	<path style="opacity:0.07;" d="M28.5,9.5c-4.96,0-9,4.04-9,9c0,0.13,0.01,0.27,0.02,0.4l-2.8,4.61c-1.91,0.07-3.73,0.88-5.07,2.25
		l-7.51-2.24l-0.12-0.04C4,23.65,4,23.83,4,24l7.8,2.32C13.08,24.9,14.93,24,17,24l3.03-4.98C20.02,18.85,20,18.68,20,18.5
		c0-4.69,3.81-8.5,8.5-8.5s8.5,3.81,8.5,8.5c0,4.53-3.56,8.23-8.03,8.48l-5.06,2.94C23.96,30.27,24,30.63,24,31c0,3.87-3.13,7-7,7
		c-3.55,0-6.47-2.64-6.93-6.06l-5.04-1.61c0.06,0.2,0.13,0.4,0.2,0.59l4.39,1.4c0.63,3.54,3.75,6.18,7.38,6.18
		c4.14,0,7.5-3.36,7.5-7.5c0-0.26-0.02-0.53-0.05-0.81l4.67-2.72c4.71-0.33,8.38-4.24,8.38-8.97C37.5,13.54,33.46,9.5,28.5,9.5z
		 M28.5,24c3.04,0,5.5-2.46,5.5-5.5c0-3.04-2.46-5.5-5.5-5.5S23,15.46,23,18.5C23,21.54,25.46,24,28.5,24z M23.89,20.44
		c-0.13-0.3-0.22-0.61-0.29-0.93c-0.06-0.33-0.1-0.67-0.1-1.01c0-0.34,0.04-0.68,0.1-1.01c0.07-0.32,0.16-0.63,0.29-0.93
		c0.06-0.15,0.14-0.3,0.21-0.44c0.47-0.85,1.17-1.55,2.02-2.02c0.14-0.07,0.29-0.15,0.44-0.21c0.3-0.13,0.61-0.22,0.93-0.29
		c0.33-0.06,0.67-0.1,1.01-0.1s0.68,0.04,1.01,0.1c0.32,0.07,0.63,0.16,0.93,0.29c0.15,0.06,0.3,0.14,0.44,0.21
		c0.85,0.47,1.55,1.17,2.02,2.02c0.07,0.14,0.15,0.29,0.21,0.44c0.13,0.3,0.22,0.61,0.29,0.93c0.06,0.33,0.1,0.67,0.1,1.01
		c0,0.34-0.04,0.68-0.1,1.01c-0.07,0.32-0.16,0.63-0.29,0.93c-0.06,0.15-0.14,0.3-0.21,0.44c-0.47,0.85-1.17,1.55-2.02,2.02
		c-0.14,0.07-0.29,0.15-0.44,0.21c-0.3,0.13-0.61,0.22-0.93,0.29c-0.33,0.06-0.67,0.1-1.01,0.1s-0.68-0.04-1.01-0.1
		c-0.32-0.07-0.63-0.16-0.93-0.29c-0.15-0.06-0.3-0.14-0.44-0.21c-0.85-0.47-1.55-1.17-2.02-2.02
		C24.03,20.74,23.95,20.59,23.89,20.44z M17,34c-0.17,0-0.34-0.02-0.51-0.05c-0.14-0.03-0.27-0.07-0.41-0.11
		c-0.01,0-0.02,0-0.02-0.01l-0.01,0.01l-3.75-1.19C12.98,34.59,14.82,36,17,36c2.76,0,5-2.24,5-5s-2.24-5-5-5
		c-1.11,0-2.13,0.38-2.96,0.99l3.91,1.16c0,0,0.02,0.02,0.03,0.03C19.15,28.59,20,29.7,20,31C20,32.66,18.66,34,17,34z M20.5,31
		c0-1.45-0.91-2.75-2.28-3.26l-0.01-0.01l-0.12-0.06l-2.79-0.83c0.54-0.22,1.11-0.34,1.7-0.34c2.48,0,4.5,2.02,4.5,4.5
		c0,2.48-2.02,4.5-4.5,4.5c-1.52,0-2.91-0.78-3.73-2.02l2.63,0.84l0.47,0.15l0.01-0.03h0.03c0.2,0.04,0.4,0.06,0.59,0.06
		C18.93,34.5,20.5,32.93,20.5,31z M17,26c-1.11,0-2.13,0.38-2.96,0.99l3.91,1.16c0,0,0.02,0.02,0.03,0.03C19.15,28.59,20,29.7,20,31
		c0,1.66-1.34,3-3,3c-0.17,0-0.34-0.02-0.51-0.05c-0.14-0.03-0.27-0.07-0.41-0.11c-0.01,0-0.02,0-0.02-0.01l-0.01,0.01l-3.75-1.19
		C12.98,34.59,14.82,36,17,36c2.76,0,5-2.24,5-5S19.76,26,17,26z M17,35.5c-1.52,0-2.91-0.78-3.73-2.02l2.63,0.84l0.47,0.15
		l0.01-0.03h0.03c0.2,0.04,0.4,0.06,0.59,0.06c1.93,0,3.5-1.57,3.5-3.5c0-1.45-0.91-2.75-2.28-3.26l-0.01-0.01l-0.12-0.06
		l-2.79-0.83c0.54-0.22,1.11-0.34,1.7-0.34c2.48,0,4.5,2.02,4.5,4.5C21.5,33.48,19.48,35.5,17,35.5z M28.5,13
		c-3.04,0-5.5,2.46-5.5,5.5c0,3.04,2.46,5.5,5.5,5.5s5.5-2.46,5.5-5.5C34,15.46,31.54,13,28.5,13z M33.11,20.44
		c-0.06,0.15-0.14,0.3-0.21,0.44c-0.47,0.85-1.17,1.55-2.02,2.02c-0.14,0.07-0.29,0.15-0.44,0.21c-0.3,0.13-0.61,0.22-0.93,0.29
		c-0.33,0.06-0.67,0.1-1.01,0.1s-0.68-0.04-1.01-0.1c-0.32-0.07-0.63-0.16-0.93-0.29c-0.15-0.06-0.3-0.14-0.44-0.21
		c-0.85-0.47-1.55-1.17-2.02-2.02c-0.07-0.14-0.15-0.29-0.21-0.44c-0.13-0.3-0.22-0.61-0.29-0.93c-0.06-0.33-0.1-0.67-0.1-1.01
		c0-0.34,0.04-0.68,0.1-1.01c0.07-0.32,0.16-0.63,0.29-0.93c0.06-0.15,0.14-0.3,0.21-0.44c0.47-0.85,1.17-1.55,2.02-2.02
		c0.14-0.07,0.29-0.15,0.44-0.21c0.3-0.13,0.61-0.22,0.93-0.29c0.33-0.06,0.67-0.1,1.01-0.1s0.68,0.04,1.01,0.1
		c0.32,0.07,0.63,0.16,0.93,0.29c0.15,0.06,0.3,0.14,0.44,0.21c0.85,0.47,1.55,1.17,2.02,2.02c0.07,0.14,0.15,0.29,0.21,0.44
		c0.13,0.3,0.22,0.61,0.29,0.93c0.06,0.33,0.1,0.67,0.1,1.01c0,0.34-0.04,0.68-0.1,1.01C33.33,19.83,33.24,20.14,33.11,20.44z
		 M28.5,13c-3.04,0-5.5,2.46-5.5,5.5c0,3.04,2.46,5.5,5.5,5.5s5.5-2.46,5.5-5.5C34,15.46,31.54,13,28.5,13z M33.11,20.44
		c-0.06,0.15-0.14,0.3-0.21,0.44c-0.47,0.85-1.17,1.55-2.02,2.02c-0.14,0.07-0.29,0.15-0.44,0.21c-0.3,0.13-0.61,0.22-0.93,0.29
		c-0.33,0.06-0.67,0.1-1.01,0.1s-0.68-0.04-1.01-0.1c-0.32-0.07-0.63-0.16-0.93-0.29c-0.15-0.06-0.3-0.14-0.44-0.21
		c-0.85-0.47-1.55-1.17-2.02-2.02c-0.07-0.14-0.15-0.29-0.21-0.44c-0.13-0.3-0.22-0.61-0.29-0.93c-0.06-0.33-0.1-0.67-0.1-1.01
		c0-0.34,0.04-0.68,0.1-1.01c0.07-0.32,0.16-0.63,0.29-0.93c0.06-0.15,0.14-0.3,0.21-0.44c0.47-0.85,1.17-1.55,2.02-2.02
		c0.14-0.07,0.29-0.15,0.44-0.21c0.3-0.13,0.61-0.22,0.93-0.29c0.33-0.06,0.67-0.1,1.01-0.1s0.68,0.04,1.01,0.1
		c0.32,0.07,0.63,0.16,0.93,0.29c0.15,0.06,0.3,0.14,0.44,0.21c0.85,0.47,1.55,1.17,2.02,2.02c0.07,0.14,0.15,0.29,0.21,0.44
		c0.13,0.3,0.22,0.61,0.29,0.93c0.06,0.33,0.1,0.67,0.1,1.01c0,0.34-0.04,0.68-0.1,1.01C33.33,19.83,33.24,20.14,33.11,20.44z
		 M17,26c-1.11,0-2.13,0.38-2.96,0.99l3.91,1.16c0,0,0.02,0.02,0.03,0.03C19.15,28.59,20,29.7,20,31c0,1.66-1.34,3-3,3
		c-0.17,0-0.34-0.02-0.51-0.05c-0.14-0.03-0.27-0.07-0.41-0.11c-0.01,0-0.02,0-0.02-0.01l-0.01,0.01l-3.75-1.19
		C12.98,34.59,14.82,36,17,36c2.76,0,5-2.24,5-5S19.76,26,17,26z M17,35.5c-1.52,0-2.91-0.78-3.73-2.02l2.63,0.84l0.47,0.15
		l0.01-0.03h0.03c0.2,0.04,0.4,0.06,0.59,0.06c1.93,0,3.5-1.57,3.5-3.5c0-1.45-0.91-2.75-2.28-3.26l-0.01-0.01l-0.12-0.06
		l-2.79-0.83c0.54-0.22,1.11-0.34,1.7-0.34c2.48,0,4.5,2.02,4.5,4.5C21.5,33.48,19.48,35.5,17,35.5z"/>
	<path style="opacity:0.07;" d="M28.5,13c-3.04,0-5.5,2.46-5.5,5.5c0,3.04,2.46,5.5,5.5,5.5s5.5-2.46,5.5-5.5
		C34,15.46,31.54,13,28.5,13z M33.11,20.44c-0.06,0.15-0.14,0.3-0.21,0.44c-0.47,0.85-1.17,1.55-2.02,2.02
		c-0.14,0.07-0.29,0.15-0.44,0.21c-0.3,0.13-0.61,0.22-0.93,0.29c-0.33,0.06-0.67,0.1-1.01,0.1s-0.68-0.04-1.01-0.1
		c-0.32-0.07-0.63-0.16-0.93-0.29c-0.15-0.06-0.3-0.14-0.44-0.21c-0.85-0.47-1.55-1.17-2.02-2.02c-0.07-0.14-0.15-0.29-0.21-0.44
		c-0.13-0.3-0.22-0.61-0.29-0.93c-0.06-0.33-0.1-0.67-0.1-1.01c0-0.34,0.04-0.68,0.1-1.01c0.07-0.32,0.16-0.63,0.29-0.93
		c0.06-0.15,0.14-0.3,0.21-0.44c0.47-0.85,1.17-1.55,2.02-2.02c0.14-0.07,0.29-0.15,0.44-0.21c0.3-0.13,0.61-0.22,0.93-0.29
		c0.33-0.06,0.67-0.1,1.01-0.1s0.68,0.04,1.01,0.1c0.32,0.07,0.63,0.16,0.93,0.29c0.15,0.06,0.3,0.14,0.44,0.21
		c0.85,0.47,1.55,1.17,2.02,2.02c0.07,0.14,0.15,0.29,0.21,0.44c0.13,0.3,0.22,0.61,0.29,0.93c0.06,0.33,0.1,0.67,0.1,1.01
		c0,0.34-0.04,0.68-0.1,1.01C33.33,19.83,33.24,20.14,33.11,20.44z M28.5,13c-3.04,0-5.5,2.46-5.5,5.5c0,3.04,2.46,5.5,5.5,5.5
		s5.5-2.46,5.5-5.5C34,15.46,31.54,13,28.5,13z M33.11,20.44c-0.06,0.15-0.14,0.3-0.21,0.44c-0.47,0.85-1.17,1.55-2.02,2.02
		c-0.14,0.07-0.29,0.15-0.44,0.21c-0.3,0.13-0.61,0.22-0.93,0.29c-0.33,0.06-0.67,0.1-1.01,0.1s-0.68-0.04-1.01-0.1
		c-0.32-0.07-0.63-0.16-0.93-0.29c-0.15-0.06-0.3-0.14-0.44-0.21c-0.85-0.47-1.55-1.17-2.02-2.02c-0.07-0.14-0.15-0.29-0.21-0.44
		c-0.13-0.3-0.22-0.61-0.29-0.93c-0.06-0.33-0.1-0.67-0.1-1.01c0-0.34,0.04-0.68,0.1-1.01c0.07-0.32,0.16-0.63,0.29-0.93
		c0.06-0.15,0.14-0.3,0.21-0.44c0.47-0.85,1.17-1.55,2.02-2.02c0.14-0.07,0.29-0.15,0.44-0.21c0.3-0.13,0.61-0.22,0.93-0.29
		c0.33-0.06,0.67-0.1,1.01-0.1s0.68,0.04,1.01,0.1c0.32,0.07,0.63,0.16,0.93,0.29c0.15,0.06,0.3,0.14,0.44,0.21
		c0.85,0.47,1.55,1.17,2.02,2.02c0.07,0.14,0.15,0.29,0.21,0.44c0.13,0.3,0.22,0.61,0.29,0.93c0.06,0.33,0.1,0.67,0.1,1.01
		c0,0.34-0.04,0.68-0.1,1.01C33.33,19.83,33.24,20.14,33.11,20.44z M28.5,13c-3.04,0-5.5,2.46-5.5,5.5c0,3.04,2.46,5.5,5.5,5.5
		s5.5-2.46,5.5-5.5C34,15.46,31.54,13,28.5,13z M33.11,20.44c-0.06,0.15-0.14,0.3-0.21,0.44c-0.47,0.85-1.17,1.55-2.02,2.02
		c-0.14,0.07-0.29,0.15-0.44,0.21c-0.3,0.13-0.61,0.22-0.93,0.29c-0.33,0.06-0.67,0.1-1.01,0.1s-0.68-0.04-1.01-0.1
		c-0.32-0.07-0.63-0.16-0.93-0.29c-0.15-0.06-0.3-0.14-0.44-0.21c-0.85-0.47-1.55-1.17-2.02-2.02c-0.07-0.14-0.15-0.29-0.21-0.44
		c-0.13-0.3-0.22-0.61-0.29-0.93c-0.06-0.33-0.1-0.67-0.1-1.01c0-0.34,0.04-0.68,0.1-1.01c0.07-0.32,0.16-0.63,0.29-0.93
		c0.06-0.15,0.14-0.3,0.21-0.44c0.47-0.85,1.17-1.55,2.02-2.02c0.14-0.07,0.29-0.15,0.44-0.21c0.3-0.13,0.61-0.22,0.93-0.29
		c0.33-0.06,0.67-0.1,1.01-0.1s0.68,0.04,1.01,0.1c0.32,0.07,0.63,0.16,0.93,0.29c0.15,0.06,0.3,0.14,0.44,0.21
		c0.85,0.47,1.55,1.17,2.02,2.02c0.07,0.14,0.15,0.29,0.21,0.44c0.13,0.3,0.22,0.61,0.29,0.93c0.06,0.33,0.1,0.67,0.1,1.01
		c0,0.34-0.04,0.68-0.1,1.01C33.33,19.83,33.24,20.14,33.11,20.44z"/>
</g>
</svg>