<?xml version="1.0" encoding="iso-8859-1"?>
<!-- Generator: Adobe Illustrator 22.1.0, SVG Export Plug-In . SVG Version: 6.00 Build 0)  -->
<svg version="1.1" id="Layer_1" xmlns="http://www.w3.org/2000/svg" xmlns:xlink="http://www.w3.org/1999/xlink" x="0px" y="0px"
	 viewBox="0 0 48 48" style="enable-background:new 0 0 48 48;" xml:space="preserve">
<radialGradient id="SVGID_1_" cx="24" cy="10.0088" r="32.2521" gradientUnits="userSpaceOnUse">
	<stop  offset="0" style="stop-color:#8C9EFF"/>
	<stop  offset="0.3683" style="stop-color:#889AF8"/>
	<stop  offset="0.889" style="stop-color:#7E8FE6"/>
	<stop  offset="1" style="stop-color:#7B8CE1"/>
</radialGradient>
<path style="fill:url(#SVGID_1_);" d="M40.107,12.15c-0.065-0.102-0.139-0.182-0.236-0.255c-0.769-0.578-4.671-3.339-9.665-3.875
	c-0.01-0.001-0.048-0.003-0.057-0.003c-0.098,0-0.183,0.057-0.224,0.14l-0.269,0.538c0,0-0.001,0-0.001,0
	c-0.017,0.033-0.026,0.071-0.026,0.111c0,0.109,0.07,0.202,0.168,0.236c0.006,0.002,0.048,0.011,0.063,0.014
	c4.267,1.028,6.863,2.89,9.149,4.945c-4.047-2.066-8.044-4.001-15.009-4.001s-10.961,1.936-15.009,4.001
	c2.286-2.055,4.882-3.917,9.149-4.945c0.015-0.004,0.057-0.012,0.063-0.014c0.098-0.034,0.168-0.127,0.168-0.236
	c0-0.04-0.009-0.078-0.026-0.111c0,0-0.001,0-0.001,0l-0.269-0.538c-0.041-0.083-0.125-0.14-0.224-0.14
	c-0.009,0-0.048,0.002-0.057,0.003c-4.994,0.536-8.896,3.297-9.665,3.875c-0.097,0.073-0.17,0.153-0.236,0.255
	c-0.708,1.107-5.049,8.388-5.892,21.632c-0.009,0.142,0.04,0.289,0.135,0.395c4.592,5.144,11.182,5.752,12.588,5.823
	c0.167,0.008,0.327-0.065,0.427-0.199l1.282-1.709c0.1-0.134,0.046-0.322-0.111-0.379c-2.705-0.986-5.717-2.7-8.332-5.706
	C11.231,34.457,16.12,37,24,37s12.769-2.543,16.009-4.993c-2.616,3.006-5.627,4.719-8.332,5.706
	c-0.157,0.057-0.211,0.245-0.111,0.379l1.282,1.709c0.101,0.134,0.26,0.208,0.427,0.199c1.407-0.072,7.996-0.679,12.588-5.823
	c0.095-0.106,0.144-0.253,0.135-0.395C45.156,20.538,40.815,13.257,40.107,12.15z"/>
<ellipse style="opacity:0.05;" cx="30.5" cy="26" rx="4.5" ry="5"/>
<ellipse style="opacity:0.05;" cx="30.5" cy="26" rx="4" ry="4.5"/>
<ellipse style="fill:#FFFFFF;" cx="30.5" cy="26" rx="3.5" ry="4"/>
<ellipse style="opacity:0.05;" cx="17.5" cy="26" rx="4.5" ry="5"/>
<ellipse style="opacity:0.05;" cx="17.5" cy="26" rx="4" ry="4.5"/>
<ellipse style="fill:#FFFFFF;" cx="17.5" cy="26" rx="3.5" ry="4"/>
</svg>