<svg xmlns="http://www.w3.org/2000/svg" xmlns:xlink="http://www.w3.org/1999/xlink" viewBox="0,0,256,256" width="1600px" height="1600px" fill-rule="nonzero"><defs><linearGradient x1="32.045" y1="9.501" x2="40.969" y2="9.501" gradientUnits="userSpaceOnUse" id="color-1"><stop offset="0.003" stop-color="#adb6bf"></stop><stop offset="0.999" stop-color="#889096"></stop></linearGradient><linearGradient x1="7.031" y1="9.501" x2="15.954" y2="9.501" gradientUnits="userSpaceOnUse" id="color-2"><stop offset="0.003" stop-color="#adb6bf"></stop><stop offset="0.999" stop-color="#889096"></stop></linearGradient><linearGradient x1="18.61" y1="8.446" x2="25.77" y2="42.002" gradientUnits="userSpaceOnUse" id="color-3"><stop offset="0" stop-color="#da4453"></stop><stop offset="1" stop-color="#89216b"></stop></linearGradient><linearGradient x1="23.433" y1="10.005" x2="24.446" y2="13.568" gradientUnits="userSpaceOnUse" id="color-4"><stop offset="0.003" stop-color="#adb6bf"></stop><stop offset="0.999" stop-color="#889096"></stop></linearGradient><linearGradient x1="29.09" y1="21.2" x2="30.811" y2="26.495" gradientUnits="userSpaceOnUse" id="color-5"><stop offset="0.003" stop-color="#adb6bf"></stop><stop offset="0.999" stop-color="#889096"></stop></linearGradient><linearGradient x1="35.132" y1="12.169" x2="35.863" y2="14.811" gradientUnits="userSpaceOnUse" id="color-6"><stop offset="0" stop-color="#ffcf7b"></stop><stop offset="0.195" stop-color="#fecd76"></stop><stop offset="0.439" stop-color="#fac666"></stop><stop offset="0.71" stop-color="#f3bc4d"></stop><stop offset="0.997" stop-color="#eaad29"></stop><stop offset="1" stop-color="#eaad29"></stop></linearGradient><linearGradient x1="35.06" y1="18.088" x2="35.862" y2="20.659" gradientUnits="userSpaceOnUse" id="color-7"><stop offset="0" stop-color="#21ad64"></stop><stop offset="1" stop-color="#088242"></stop></linearGradient><linearGradient x1="38.028" y1="15.059" x2="38.901" y2="17.724" gradientUnits="userSpaceOnUse" id="color-8"><stop offset="0" stop-color="#f44f5a"></stop><stop offset="0.443" stop-color="#ee3d4a"></stop><stop offset="1" stop-color="#e52030"></stop></linearGradient><linearGradient x1="32.096" y1="14.984" x2="32.851" y2="17.815" gradientUnits="userSpaceOnUse" id="color-9"><stop offset="0" stop-color="#418ff2"></stop><stop offset="0.494" stop-color="#317add"></stop><stop offset="1" stop-color="#1e60c4"></stop></linearGradient><linearGradient x1="16.206" y1="22.2" x2="18.539" y2="28.149" gradientUnits="userSpaceOnUse" id="color-10"><stop offset="0" stop-color="#4c4c4c"></stop><stop offset="1" stop-color="#343434"></stop></linearGradient><linearGradient x1="18.424" y1="27.857" x2="16.758" y2="23.607" gradientUnits="userSpaceOnUse" id="color-11"><stop offset="0" stop-color="#4c4c4c"></stop><stop offset="1" stop-color="#343434"></stop></linearGradient><linearGradient x1="30.739" y1="25.886" x2="29.406" y2="22.486" gradientUnits="userSpaceOnUse" id="color-12"><stop offset="0.003" stop-color="#adb6bf"></stop><stop offset="0.999" stop-color="#889096"></stop></linearGradient><linearGradient x1="11.09" y1="14.2" x2="12.811" y2="19.495" gradientUnits="userSpaceOnUse" id="color-13"><stop offset="0.003" stop-color="#adb6bf"></stop><stop offset="0.999" stop-color="#889096"></stop></linearGradient><linearGradient x1="12.74" y1="18.886" x2="11.406" y2="15.486" gradientUnits="userSpaceOnUse" id="color-14"><stop offset="0.003" stop-color="#adb6bf"></stop><stop offset="0.999" stop-color="#889096"></stop></linearGradient></defs><g fill="none" fill-rule="nonzero" stroke="none" stroke-width="1" stroke-linecap="butt" stroke-linejoin="miter" stroke-miterlimit="10" stroke-dasharray="" stroke-dashoffset="0" font-family="none" font-weight="none" font-size="none" text-anchor="none" style="mix-blend-mode: normal"><g transform="scale(5.33333,5.33333)"><path d="M40.861,11.695c0,0 0.167,-0.691 0.086,-1.018c-0.162,-0.652 -1.227,-2.066 -3.379,-2.718c-2.176,-0.659 -3.356,-0.652 -3.783,-0.652c-0.804,0 -0.826,0.478 -1.739,0.826c1.596,0.559 6.36,1.929 8.815,3.562z" fill="url(#color-1)"></path><path d="M7.139,11.695c0,0 -0.167,-0.691 -0.086,-1.018c0.162,-0.652 1.227,-2.066 3.379,-2.718c2.176,-0.659 3.356,-0.652 3.783,-0.652c0.804,0 0.826,0.478 1.739,0.826c-1.596,0.559 -6.36,1.929 -8.815,3.562z" fill="url(#color-2)"></path><path d="M43.009,16.041c-1.978,-5.979 -5.207,-8.041 -13.626,-8.041h-10.766c-8.419,0 -11.648,2.062 -13.626,8.041c-3.333,10.073 -4.991,13.863 -4.991,18.328c0,4.37 5,6.631 5,6.631l7.197,-7.197c1.154,-1.154 2.72,-1.803 4.353,-1.803h14.9c1.633,0 3.198,0.649 4.353,1.803l7.197,7.197c0,0 5,-2.261 5,-6.631c0,-4.465 -1.658,-8.255 -4.991,-18.328z" fill="url(#color-3)"></path><circle cx="24" cy="12" r="2" fill="url(#color-4)"></circle><circle cx="30" cy="24" r="3" fill="url(#color-5)"></circle><path d="M30,21c1.657,0 3,1.343 3,3c0,1.657 -1.343,3 -3,3c-1.657,0 -3,-1.343 -3,-3c0,-1.657 1.343,-3 3,-3M30,20c-2.206,0 -4,1.794 -4,4c0,2.206 1.794,4 4,4c2.206,0 4,-1.794 4,-4c0,-2.206 -1.794,-4 -4,-4z" fill="#000000" opacity="0.05"></path><path d="M30,21c1.657,0 3,1.343 3,3c0,1.657 -1.343,3 -3,3c-1.657,0 -3,-1.343 -3,-3c0,-1.657 1.343,-3 3,-3M30,20.5c-1.93,0 -3.5,1.57 -3.5,3.5c0,1.93 1.57,3.5 3.5,3.5c1.93,0 3.5,-1.57 3.5,-3.5c0,-1.93 -1.57,-3.5 -3.5,-3.5z" fill="#000000" opacity="0.07"></path><circle cx="35.5" cy="13.5" r="1.5" fill="url(#color-6)"></circle><circle cx="35.5" cy="19.5" r="1.5" fill="url(#color-7)"></circle><circle cx="38.5" cy="16.5" r="1.5" fill="url(#color-8)"></circle><circle cx="32.5" cy="16.5" r="1.5" fill="url(#color-9)"></circle><circle cx="28" cy="17" r="1" fill="#89216b"></circle><path d="M25,18c-0.186,0 -1.814,0 -2,0c-0.552,0 -1,0.448 -1,1c0,0.552 0.448,1 1,1c0.186,0 1.814,0 2,0c0.552,0 1,-0.448 1,-1c0,-0.552 -0.448,-1 -1,-1z" fill="#89216b"></path><circle cx="20" cy="17" r="1" fill="#89216b"></circle><circle cx="17.5" cy="25.5" r="3.5" fill="url(#color-10)"></circle><path d="M17.5,22c1.933,0 3.5,1.567 3.5,3.5c0,1.933 -1.567,3.5 -3.5,3.5c-1.933,0 -3.5,-1.567 -3.5,-3.5c0,-1.933 1.567,-3.5 3.5,-3.5M17.5,21c-2.481,0 -4.5,2.019 -4.5,4.5c0,2.481 2.019,4.5 4.5,4.5c2.481,0 4.5,-2.019 4.5,-4.5c0,-2.481 -2.019,-4.5 -4.5,-4.5z" fill="#000000" opacity="0.05"></path><path d="M17.5,22c1.933,0 3.5,1.567 3.5,3.5c0,1.933 -1.567,3.5 -3.5,3.5c-1.933,0 -3.5,-1.567 -3.5,-3.5c0,-1.933 1.567,-3.5 3.5,-3.5M17.5,21.5c-2.206,0 -4,1.794 -4,4c0,2.206 1.794,4 4,4c2.206,0 4,-1.794 4,-4c0,-2.206 -1.794,-4 -4,-4z" fill="#000000" opacity="0.07"></path><circle cx="17.5" cy="25.5" r="2.5" fill="url(#color-11)"></circle><circle cx="30" cy="24" r="2" fill="url(#color-12)"></circle><g><circle cx="12" cy="17" r="3" fill="url(#color-13)"></circle><path d="M12,14c1.657,0 3,1.343 3,3c0,1.657 -1.343,3 -3,3c-1.657,0 -3,-1.343 -3,-3c0,-1.657 1.343,-3 3,-3M12,13c-2.206,0 -4,1.794 -4,4c0,2.206 1.794,4 4,4c2.206,0 4,-1.794 4,-4c0,-2.206 -1.794,-4 -4,-4z" fill="#000000" opacity="0.05"></path><path d="M12,14c1.657,0 3,1.343 3,3c0,1.657 -1.343,3 -3,3c-1.657,0 -3,-1.343 -3,-3c0,-1.657 1.343,-3 3,-3M12,13.5c-1.93,0 -3.5,1.57 -3.5,3.5c0,1.93 1.57,3.5 3.5,3.5c1.93,0 3.5,-1.57 3.5,-3.5c0,-1.93 -1.57,-3.5 -3.5,-3.5z" fill="#000000" opacity="0.07"></path></g><circle cx="12" cy="17" r="2" fill="url(#color-14)"></circle></g></g></svg>