<svg xmlns="http://www.w3.org/2000/svg"  viewBox="0 0 48 48" width="48px" height="48px"><linearGradient id="k8yl7~hDat~FaoWq8WjN6a" x1="-1254.397" x2="-1261.911" y1="877.268" y2="899.466" gradientTransform="translate(1981.75 -1362.063) scale(1.5625)" gradientUnits="userSpaceOnUse"><stop offset="0" stop-color="#114a8b"/><stop offset="1" stop-color="#0669bc"/></linearGradient><path fill="url(#k8yl7~hDat~FaoWq8WjN6a)" d="M17.634,6h11.305L17.203,40.773c-0.247,0.733-0.934,1.226-1.708,1.226H6.697 c-0.994,0-1.8-0.806-1.8-1.8c0-0.196,0.032-0.39,0.094-0.576L15.926,7.227C16.173,6.494,16.86,6,17.634,6L17.634,6z"/><path fill="#0078d4" d="M34.062,29.324H16.135c-0.458-0.001-0.83,0.371-0.831,0.829c0,0.231,0.095,0.451,0.264,0.608 l11.52,10.752C27.423,41.826,27.865,42,28.324,42h10.151L34.062,29.324z"/><linearGradient id="k8yl7~hDat~FaoWq8WjN6b" x1="-1252.05" x2="-1253.788" y1="887.612" y2="888.2" gradientTransform="translate(1981.75 -1362.063) scale(1.5625)" gradientUnits="userSpaceOnUse"><stop offset="0" stop-opacity=".3"/><stop offset=".071" stop-opacity=".2"/><stop offset=".321" stop-opacity=".1"/><stop offset=".623" stop-opacity=".05"/><stop offset="1" stop-opacity="0"/></linearGradient><path fill="url(#k8yl7~hDat~FaoWq8WjN6b)" d="M17.634,6c-0.783-0.003-1.476,0.504-1.712,1.25L5.005,39.595 c-0.335,0.934,0.151,1.964,1.085,2.299C6.286,41.964,6.493,42,6.702,42h9.026c0.684-0.122,1.25-0.603,1.481-1.259l2.177-6.416 l7.776,7.253c0.326,0.27,0.735,0.419,1.158,0.422h10.114l-4.436-12.676l-12.931,0.003L28.98,6H17.634z"/><linearGradient id="k8yl7~hDat~FaoWq8WjN6c" x1="-1252.952" x2="-1244.704" y1="876.6" y2="898.575" gradientTransform="translate(1981.75 -1362.063) scale(1.5625)" gradientUnits="userSpaceOnUse"><stop offset="0" stop-color="#3ccbf4"/><stop offset="1" stop-color="#2892df"/></linearGradient><path fill="url(#k8yl7~hDat~FaoWq8WjN6c)" d="M32.074,7.225C31.827,6.493,31.141,6,30.368,6h-12.6c0.772,0,1.459,0.493,1.705,1.224 l10.935,32.399c0.318,0.942-0.188,1.963-1.13,2.281C29.093,41.968,28.899,42,28.703,42h12.6c0.994,0,1.8-0.806,1.8-1.801 c0-0.196-0.032-0.39-0.095-0.575L32.074,7.225z"/></svg>