<svg xmlns="http://www.w3.org/2000/svg" xmlns:xlink="http://www.w3.org/1999/xlink" viewBox="0,0,256,256" width="480px" height="480px" fill-rule="nonzero"><g fill="none" fill-rule="nonzero" stroke="none" stroke-width="1" stroke-linecap="butt" stroke-linejoin="miter" stroke-miterlimit="10" stroke-dasharray="" stroke-dashoffset="0" font-family="none" font-weight="none" font-size="none" text-anchor="none" style="mix-blend-mode: normal"><g transform="scale(5.33333,5.33333)"><path d="M19.847,41.956c-5.629,-0.002 -11.259,0.024 -16.888,-0.013c-2.855,-0.019 -3.374,-0.7 -2.731,-3.525c2.178,-9.58 4.427,-19.143 6.557,-28.734c0.571,-2.572 1.803,-3.709 4.527,-3.684c11.258,0.106 22.517,0.034 33.776,0.046c2.824,0.003 3.298,0.614 2.664,3.511c-2.058,9.406 -4.129,18.809 -6.236,28.203c-0.789,3.516 -1.697,4.187 -5.353,4.195c-5.439,0.011 -10.878,0.003 -16.316,0.001z" fill="#ff009f"></path><path d="M25.057,23.922c-0.608,-0.687 -1.114,-1.267 -1.531,-1.732c-2.43,-2.728 -4.656,-5.27 -7.063,-7.869c-1.102,-1.189 -1.453,-2.344 -0.13,-3.518c1.307,-1.16 2.592,-1.058 3.791,0.277c3.34,3.717 6.676,7.438 10.071,11.104c1.268,1.369 0.972,2.3 -0.424,3.315c-5.359,3.895 -10.687,7.833 -16.01,11.778c-1.196,0.887 -2.337,1.109 -3.304,-0.201c-1.066,-1.445 -0.08,-2.305 1.026,-3.114c3.955,-2.893 7.903,-5.798 11.834,-8.725c0.548,-0.407 1.278,-0.97 1.74,-1.315zM21.75,37c-1.125,0 -1.75,-1 -1.75,-2c0,-1 0.625,-2 1.75,-2c4.224,0 6.112,0 9.5,0c1.125,0 1.75,1 1.75,2c0,1 -0.625,2 -1.75,2c-2.125,0 -6.25,0 -9.5,0z" fill="#fafafa"></path></g></g></svg>