<svg xmlns="http://www.w3.org/2000/svg"  viewBox="0 0 48 48" width="48px" height="48px"><linearGradient id="CpX24D3hTlJw-sNITM5NDa" x1="23.1" x2="24.819" y1="6.086" y2="40.569" gradientUnits="userSpaceOnUse"><stop offset=".003" stop-color="#008ded"/><stop offset="1" stop-color="#0061a7"/></linearGradient><path fill="url(#CpX24D3hTlJw-sNITM5NDa)" d="M19.847,41.956c-5.629-0.002-11.259,0.024-16.888-0.013c-2.855-0.019-3.374-0.7-2.731-3.525 c2.178-9.58,4.427-19.143,6.557-28.734C7.356,7.112,8.588,5.975,11.312,6C22.57,6.106,33.829,6.034,45.088,6.046 c2.824,0.003,3.298,0.614,2.664,3.511c-2.058,9.406-4.129,18.809-6.236,28.203c-0.789,3.516-1.697,4.187-5.353,4.195 C30.724,41.966,25.285,41.958,19.847,41.956z"/><path fill="none" stroke="#1d1d1b" stroke-width="2" d="M25.057,23.922c-0.608-0.687-1.114-1.267-1.531-1.732 c-2.43-2.728-4.656-5.27-7.063-7.869c-1.102-1.189-1.453-2.344-0.13-3.518c1.307-1.16,2.592-1.058,3.791,0.277 c3.34,3.717,6.676,7.438,10.071,11.104c1.268,1.369,0.972,2.3-0.424,3.315c-5.359,3.895-10.687,7.833-16.01,11.778 c-1.196,0.887-2.337,1.109-3.304-0.201c-1.066-1.445-0.08-2.305,1.026-3.114c3.955-2.893,7.903-5.798,11.834-8.725 C23.865,24.83,24.595,24.267,25.057,23.922z M21.75,37C20.625,37,20,36,20,35s0.625-2,1.75-2c4.224,0,6.112,0,9.5,0 c1.125,0,1.75,1,1.75,2s-0.625,2-1.75,2C29.125,37,25,37,21.75,37z" opacity=".05"/><path fill="none" stroke="#000" d="M25.057,23.922c-0.608-0.687-1.114-1.267-1.531-1.732 c-2.43-2.728-4.656-5.27-7.063-7.869c-1.102-1.189-1.453-2.344-0.13-3.518c1.307-1.16,2.592-1.058,3.791,0.277 c3.34,3.717,6.676,7.438,10.071,11.104c1.268,1.369,0.972,2.3-0.424,3.315c-5.359,3.895-10.687,7.833-16.01,11.778 c-1.196,0.887-2.337,1.109-3.304-0.201c-1.066-1.445-0.08-2.305,1.026-3.114c3.955-2.893,7.903-5.798,11.834-8.725 C23.865,24.83,24.595,24.267,25.057,23.922z M21.75,37C20.625,37,20,36,20,35s0.625-2,1.75-2c4.224,0,6.112,0,9.5,0 c1.125,0,1.75,1,1.75,2s-0.625,2-1.75,2C29.125,37,25,37,21.75,37z" opacity=".07"/><path fill="#fafafa" d="M25.057,23.922c-0.608-0.687-1.114-1.267-1.531-1.732c-2.43-2.728-4.656-5.27-7.063-7.869 c-1.102-1.189-1.453-2.344-0.13-3.518c1.307-1.16,2.592-1.058,3.791,0.277c3.34,3.717,6.676,7.438,10.071,11.104 c1.268,1.369,0.972,2.3-0.424,3.315c-5.359,3.895-10.687,7.833-16.01,11.778c-1.196,0.887-2.337,1.109-3.304-0.201 c-1.066-1.445-0.08-2.305,1.026-3.114c3.955-2.893,7.903-5.798,11.834-8.725C23.865,24.83,24.595,24.267,25.057,23.922z M21.75,37 C20.625,37,20,36,20,35s0.625-2,1.75-2c4.224,0,6.112,0,9.5,0c1.125,0,1.75,1,1.75,2s-0.625,2-1.75,2C29.125,37,25,37,21.75,37z"/></svg>