<svg xmlns="http://www.w3.org/2000/svg"  viewBox="0 0 464.022 464.022" width="1600px" height="1600px"><path fill="#ffaa64" d="M405.971,166.322c-1.69-3.8-6.04-5.59-9.97-4.23c-38.2,13.24-78.18-18.49-73.73-58.86	c0.45-4.09-2.29-7.9-6.33-8.67c-12.26-2.34-21.93-13.15-21.93-26.54c0-3.699,2.352-10.704-4.62-13.43	C150.88,0.218,0.011,102.525,0.011,252.022c0,117.08,94.92,212,212,212C365.471,464.022,467.694,305.783,405.971,166.322z M212.011,318.732c-36.84,0-66.71-29.87-66.71-66.71s29.87-66.71,66.71-66.71s66.71,29.87,66.71,66.71	S248.851,318.732,212.011,318.732z"/><path fill="#ffbd7b" d="M322.271,103.232c-0.39,3.56-0.44,7.06-0.17,10.47C174.243,84.791,57.6,212.462,70.98,344.326	c2.485,24.487-30.137,35.193-42.486,13.902C10.381,327,0.011,290.722,0.011,252.022c0-149.5,150.87-251.8,289.38-197.43	c6.97,2.73,4.62,9.73,4.62,13.43c0,13.39,9.67,24.2,21.93,26.54C319.981,95.332,322.721,99.142,322.271,103.232z"/><path fill="#ff6d7a" d="M424.011,252.022h-19.19c-10.598,0-19.19,8.592-19.19,19.19v18.28c0,10.59-8.59,19.19-19.19,19.19	c-12.457,0-20.1-9.253-20.1-19.19v-60.31c0-5.3-2.15-10.1-5.62-13.57c-12.077-12.077-32.76-3.445-32.76,14.065v3.155	c0,10.598-8.592,19.19-19.19,19.19h-10.05c0-36.84-29.87-66.71-66.71-66.71s-66.71,29.87-66.71,66.71v-17.82	c0-13.566-11.136-24.479-24.709-24.205c-13.272,0.268-23.721,11.491-23.721,24.767v56.098c0,12.987-10.607,23.472-23.619,23.298	c-12.83-0.172-22.981-10.991-22.981-23.822v-17.766c0-12.868-10.432-23.3-23.3-23.3H0.031c1.47-115.81,95.82-209.25,211.98-209.25	c27.311,0,53.413,5.161,77.384,14.569c3.574,1.403,5.634,5.1,4.994,8.887c-2.51,14.866,7.495,28.402,21.553,31.083	c4.038,0.77,6.777,4.582,6.327,8.668c-4.447,40.373,35.528,72.1,73.73,58.867c3.929-1.361,8.285,0.424,9.968,4.227	C417.567,192.527,424.011,221.526,424.011,252.022z"/><path fill="#ff8c95" d="M322.271,103.232c-0.39,3.56-0.44,7.06-0.17,10.47c-124.43-24.33-247.08,68.34-251.94,200.2	c-11.33-1.69-19.89-11.78-19.89-23.56v-17.77c0-12.87-10.43-23.3-23.3-23.3H0.031C1.913,101.03,151.891,0.615,289.391,54.592	c6.967,2.724,4.62,9.712,4.62,13.43c0,13.39,9.67,24.2,21.93,26.54C319.981,95.332,322.721,99.142,322.271,103.232z"/><circle cx="434.011" cy="30.022" r="30" fill="#ff6d7a"/><path fill="#fff" d="M131.424,146.199c-3.124-3.125-3.124-8.189,0-11.314l10.05-10.05c3.125-3.123,8.189-3.123,11.314,0	c3.124,3.125,3.124,8.189,0,11.314l-10.05,10.05C139.612,149.323,134.549,149.322,131.424,146.199z"/><path fill="#fff" d="M111.424,370.199c-3.124-3.125-3.124-8.189,0-11.314l10.05-10.05c3.125-3.123,8.189-3.123,11.314,0	c3.124,3.125,3.124,8.189,0,11.314l-10.05,10.05C119.612,373.323,114.549,373.322,111.424,370.199z"/><path fill="#fff" d="M252.049,152.593l-6.4-6.391c-3.127-3.122-3.131-8.188-0.009-11.313	c3.121-3.128,8.187-3.133,11.313-0.009l6.4,6.391c3.127,3.122,3.131,8.188,0.009,11.313	C260.246,155.707,255.179,155.719,252.049,152.593z"/><path fill="#fff" d="M167.049,417.593l-6.4-6.391c-3.127-3.122-3.131-8.188-0.009-11.313	c3.121-3.128,8.187-3.133,11.313-0.009l6.4,6.391c3.127,3.122,3.131,8.188,0.009,11.313	C175.246,420.707,170.179,420.719,167.049,417.593z"/><path fill="#fff" d="M210.801,99.882h-13.57c-4.418,0-8-3.582-8-8s3.582-8,8-8h13.57c4.418,0,8,3.582,8,8	S215.219,99.882,210.801,99.882z"/><path fill="#fff" d="M249.911,394.072h-15.54c-4.418,0-8-3.582-8-8s3.582-8,8-8h15.54c4.418,0,8,3.582,8,8	S254.329,394.072,249.911,394.072z"/><path fill="#fff" d="M65.801,206.112c-4.418,0-8-3.582-8-8v-12.8c0-4.418,3.582-8,8-8s8,3.582,8,8v12.8	C73.801,202.53,70.219,206.112,65.801,206.112z"/><path fill="#fff" d="M306.801,374.112c-4.418,0-8-3.582-8-8v-12.8c0-4.418,3.582-8,8-8s8,3.582,8,8v12.8	C314.801,370.53,311.219,374.112,306.801,374.112z"/><circle cx="353.011" cy="43.022" r="13" fill="#fe4f60"/><circle cx="404.511" cy="108.522" r="15.5" fill="#fe4f60"/><path fill="#ff8c95" d="M441.136,22.911c-6.149,2.963-11.19,7.976-14.185,14.11c-5.409,11.082-22.056,7.574-22.783-4.736	c-1.078-18.254,12.95-34.194,32.997-32.098C449.049,1.428,451.9,17.723,441.136,22.911z"/></svg>